<svg width="16" height="17" viewBox="0 0 16 17" fill="none" xmlns="http://www.w3.org/2000/svg">
<rect x="0.500244" y="1" width="15.2444" height="15.2444" rx="6.5" fill="white"/>
<path d="M7.35298 11.5273L7.35293 11.5273C7.28319 11.5923 7.19135 11.6329 7.09438 11.6329C7.00094 11.6329 6.90655 11.5981 6.83286 11.5244M7.35298 11.5273L6.83286 11.5244C6.83286 11.5244 6.83286 11.5244 6.83286 11.5244M7.35298 11.5273L7.3559 11.5244L9.52841 9.35188C9.52855 9.35174 9.52869 9.3516 9.52883 9.35146C9.72571 9.15815 9.83105 8.89709 9.83105 8.62287C9.83105 8.34744 9.72155 8.087 9.52923 7.89468L7.3559 5.72135C7.21237 5.57782 6.97639 5.57782 6.83286 5.72135C6.68933 5.86488 6.68933 6.10086 6.83286 6.24439L9.0062 8.41772C9.11933 8.53086 9.11933 8.71488 9.0062 8.82802L6.83286 11.0014C6.68933 11.1449 6.68933 11.3809 6.83286 11.5244M7.35298 11.5273L6.83286 11.5244" fill="#29304B" stroke="#29304B" stroke-width="0.24"/>
<rect x="0.500244" y="1" width="15.2444" height="15.2444" rx="6.5" stroke="#EBEEF7"/>
</svg>
