<svg xmlns="http://www.w3.org/2000/svg" xmlns:xlink="http://www.w3.org/1999/xlink" viewBox="0 0 584.07 747.68"><defs><style>.cls-1{fill:#fd0a04;}.cls-2{fill:#4f5260;}.cls-3{fill:#554548;}.cls-4{fill:#a80000;}.cls-5{fill:#06121c;}.cls-6{fill:#635151;}.cls-7{fill:#bbaca9;}.cls-8{opacity:0.25;}.cls-9{clip-path:url(#clip-path);}.cls-10{fill:#a39290;}.cls-11{clip-path:url(#clip-path-2);}.cls-12{clip-path:url(#clip-path-3);}.cls-13{clip-path:url(#clip-path-4);}.cls-14{fill:#ffed10;}.cls-15{clip-path:url(#clip-path-5);}.cls-16,.cls-17,.cls-18,.cls-19,.cls-20,.cls-21,.cls-22,.cls-24,.cls-30,.cls-31,.cls-41,.cls-42,.cls-43,.cls-44,.cls-45,.cls-46,.cls-47,.cls-53,.cls-54{opacity:0.5;}.cls-16{fill:url(#linear-gradient);}.cls-17{fill:url(#linear-gradient-2);}.cls-18{fill:url(#linear-gradient-3);}.cls-19{fill:url(#linear-gradient-4);}.cls-20{fill:url(#linear-gradient-5);}.cls-21{fill:url(#linear-gradient-6);}.cls-22{fill:url(#linear-gradient-7);}.cls-23{fill:#fff;}.cls-25{fill:url(#linear-gradient-8);}.cls-26{fill:url(#linear-gradient-9);}.cls-27{fill:url(#linear-gradient-10);}.cls-28{fill:url(#linear-gradient-11);}.cls-29{fill:url(#linear-gradient-12);}.cls-30{fill:url(#linear-gradient-13);}.cls-31{fill:url(#linear-gradient-14);}.cls-32{fill:none;stroke:#a80000;stroke-miterlimit:10;stroke-width:8.81px;}.cls-33{clip-path:url(#clip-path-6);}.cls-34{clip-path:url(#clip-path-7);}.cls-35{clip-path:url(#clip-path-8);}.cls-36{clip-path:url(#clip-path-9);}.cls-37{clip-path:url(#clip-path-10);}.cls-38{clip-path:url(#clip-path-11);}.cls-39{clip-path:url(#clip-path-12);}.cls-40{clip-path:url(#clip-path-13);}.cls-41{fill:url(#linear-gradient-15);}.cls-42{fill:url(#linear-gradient-16);}.cls-43{fill:url(#linear-gradient-17);}.cls-44{fill:url(#linear-gradient-18);}.cls-45{fill:url(#linear-gradient-19);}.cls-46{fill:url(#linear-gradient-20);}.cls-47{fill:url(#linear-gradient-21);}.cls-48{fill:url(#linear-gradient-22);}.cls-49{fill:url(#linear-gradient-23);}.cls-50{fill:url(#linear-gradient-24);}.cls-51{fill:url(#linear-gradient-25);}.cls-52{fill:url(#linear-gradient-26);}.cls-53{fill:url(#linear-gradient-27);}.cls-54{fill:url(#linear-gradient-28);}.cls-55{clip-path:url(#clip-path-14);}.cls-56{clip-path:url(#clip-path-15);}.cls-57{clip-path:url(#clip-path-16);}</style><clipPath id="clip-path"><path class="cls-3" d="M94.78,387.28c.24,0,43.68-31.95,68.05-64.79,25-32.84,62.31-38,62.46-38,.42,0,1.67,72.53,78.93,102.76Z"/></clipPath><clipPath id="clip-path-2"><path class="cls-3" d="M502.11,387.28H396.86c23.21-24-4.53-94.86-18.09-129.57-.19,0,35.85,33.39,66.25,107a135.26,135.26,0,0,0-5-32.29C439.85,332.38,470.57,367.19,502.11,387.28Z"/></clipPath><clipPath id="clip-path-3"><path class="cls-3" d="M283.49,188c-2,20.75-1.32,55.49,22.19,81,.05,0,10.75-10.41,9.86-41.11-.11,0,9.06,20.39,7.92,29.56.66,0,13.21-56-.12-69.24-6.89-7.07-17.12-11.71-25.15-14.5C291.19,171.25,284.51,177.22,283.49,188Z"/></clipPath><clipPath id="clip-path-4"><path class="cls-1" d="M269.49,194.13s-26.33,66.93-4.33,131.59-35.83,69.33-35.83,69.33,48.07,4.37,80.62-55.15,71.22,48.48,71.22,48.48,20.2-73-38.7-137.11c0,0-10.47,42.22-23.93,51.43C318.54,302.71,259.82,276.54,269.49,194.13Z"/></clipPath><clipPath id="clip-path-5"><path class="cls-1" d="M292.74,145.79s22.55-2.11,37.91,30.81c0,0-35.57-21.16-49.27-23.78,0,0,7.13-1,18.13,2.37C306,157.19,303.57,147.72,292.74,145.79Z"/></clipPath><linearGradient id="linear-gradient" x1="161.82" y1="567.13" x2="161.82" y2="517.97" gradientUnits="userSpaceOnUse"><stop offset="0.5"/><stop offset="1" stop-opacity="0.25"/></linearGradient><linearGradient id="linear-gradient-2" x1="208.25" y1="562.61" x2="208.25" y2="515.82" xlink:href="#linear-gradient"/><linearGradient id="linear-gradient-3" x1="254.31" y1="559.89" x2="254.31" y2="514.01" xlink:href="#linear-gradient"/><linearGradient id="linear-gradient-4" x1="301.62" y1="559.31" x2="301.62" y2="513.84" xlink:href="#linear-gradient"/><linearGradient id="linear-gradient-5" x1="336.45" y1="559.96" x2="336.45" y2="514.43" xlink:href="#linear-gradient"/><linearGradient id="linear-gradient-6" x1="370.71" y1="562.73" x2="370.71" y2="515.15" xlink:href="#linear-gradient"/><linearGradient id="linear-gradient-7" x1="412.49" y1="565.94" x2="412.49" y2="517.94" xlink:href="#linear-gradient"/><linearGradient id="linear-gradient-8" x1="176.97" y1="406.78" x2="176.97" y2="498.29" gradientUnits="userSpaceOnUse"><stop offset="0.5" stop-color="#fff"/><stop offset="1" stop-opacity="0.25"/></linearGradient><linearGradient id="linear-gradient-9" x1="236.5" y1="405.61" x2="236.5" y2="492.36" xlink:href="#linear-gradient-8"/><linearGradient id="linear-gradient-10" x1="283.69" y1="405.13" x2="283.69" y2="491.26" xlink:href="#linear-gradient-8"/><linearGradient id="linear-gradient-11" x1="329.7" y1="405.29" x2="329.7" y2="491.71" xlink:href="#linear-gradient-8"/><linearGradient id="linear-gradient-12" x1="392.02" y1="406.15" x2="392.02" y2="497.2" xlink:href="#linear-gradient-8"/><linearGradient id="linear-gradient-13" x1="82.52" y1="411.91" x2="82.52" y2="575.69" xlink:href="#linear-gradient-8"/><linearGradient id="linear-gradient-14" x1="495.7" y1="410.97" x2="495.7" y2="575.93" xlink:href="#linear-gradient-8"/><clipPath id="clip-path-6"><path class="cls-1" d="M542.09,202c13.22,2.33,23.28,9.24,20.1,20s-16.07,24.48-34.44,13.6S476.82,229,476.82,229,530.84,200,542.09,202Z"/></clipPath><clipPath id="clip-path-7"><path class="cls-1" d="M27.78,289.35c-3.91,12.84-2.3,24.94,8.77,27s29.1-3.24,27.71-24.55S81.4,243.38,81.4,243.38,31.1,278.43,27.78,289.35Z"/></clipPath><clipPath id="clip-path-8"><path class="cls-1" d="M525.43,253.52c3.8,5.15,5,10.85.35,13.53s-13.6,3.17-16.37-6.63-15.4-19-15.4-19S522.2,249.13,525.43,253.52Z"/></clipPath><clipPath id="clip-path-9"><path class="cls-2" d="M503.11,387.28H397.86c23.21-24-4.53-94.86-18.09-129.57-.19,0,35.85,33.39,66.25,107a135.26,135.26,0,0,0-5-32.29C440.85,332.38,471.57,367.19,503.11,387.28Z"/></clipPath><clipPath id="clip-path-10"><path class="cls-2" d="M284.49,188c-2,20.75-1.32,55.49,22.19,81,.05,0,10.75-10.41,9.86-41.11-.11,0,9.06,20.39,7.92,29.56.66,0,13.21-56-.12-69.24-6.89-7.07-17.12-11.71-25.15-14.5C292.19,171.25,285.51,177.22,284.49,188Z"/></clipPath><clipPath id="clip-path-11"><path class="cls-1" d="M270.49,194.13s-26.33,66.93-4.33,131.59-35.83,69.33-35.83,69.33,48.07,4.37,80.62-55.15,71.22,48.48,71.22,48.48,20.2-73-38.7-137.11c0,0-10.47,42.22-23.93,51.43C319.54,302.71,260.82,276.54,270.49,194.13Z"/></clipPath><clipPath id="clip-path-12"><path class="cls-1" d="M293.74,145.79s22.55-2.11,37.91,30.81c0,0-35.57-21.16-49.27-23.78,0,0,7.13-1,18.13,2.37C307,157.19,304.57,147.72,293.74,145.79Z"/></clipPath><clipPath id="clip-path-13"><path class="cls-2" d="M232.38,313.11l-.26-.78h0C208.4,317,189.69,335.9,189.53,335.9c11.42-32.75,36.91-51.38,36.76-51.38s-37.44,5.14-62.46,38C139.45,355.33,96,387.28,95.78,387.28c0,0,114.05-7.06,131.62-23.06C243.45,349.61,234.12,318.4,232.38,313.11Z"/></clipPath><linearGradient id="linear-gradient-15" x1="162.82" y1="567.13" x2="162.82" y2="517.97" xlink:href="#linear-gradient"/><linearGradient id="linear-gradient-16" x1="209.25" y1="562.61" x2="209.25" y2="515.82" xlink:href="#linear-gradient"/><linearGradient id="linear-gradient-17" x1="255.31" y1="559.89" x2="255.31" y2="514.01" xlink:href="#linear-gradient"/><linearGradient id="linear-gradient-18" x1="302.62" y1="559.31" x2="302.62" y2="513.84" xlink:href="#linear-gradient"/><linearGradient id="linear-gradient-19" x1="337.45" y1="559.96" x2="337.45" y2="514.43" xlink:href="#linear-gradient"/><linearGradient id="linear-gradient-20" x1="371.71" y1="562.73" x2="371.71" y2="515.15" xlink:href="#linear-gradient"/><linearGradient id="linear-gradient-21" x1="413.49" y1="565.94" x2="413.49" y2="517.94" xlink:href="#linear-gradient"/><linearGradient id="linear-gradient-22" x1="177.97" y1="406.78" x2="177.97" y2="498.29" xlink:href="#linear-gradient-8"/><linearGradient id="linear-gradient-23" x1="237.5" y1="405.61" x2="237.5" y2="492.36" xlink:href="#linear-gradient-8"/><linearGradient id="linear-gradient-24" x1="284.69" y1="405.13" x2="284.69" y2="491.26" xlink:href="#linear-gradient-8"/><linearGradient id="linear-gradient-25" x1="330.7" y1="405.29" x2="330.7" y2="491.71" xlink:href="#linear-gradient-8"/><linearGradient id="linear-gradient-26" x1="393.02" y1="406.15" x2="393.02" y2="497.2" xlink:href="#linear-gradient-8"/><linearGradient id="linear-gradient-27" x1="83.52" y1="411.91" x2="83.52" y2="575.69" xlink:href="#linear-gradient-8"/><linearGradient id="linear-gradient-28" x1="496.7" y1="410.97" x2="496.7" y2="575.93" xlink:href="#linear-gradient-8"/><clipPath id="clip-path-14"><path class="cls-1" d="M543.09,202c13.22,2.33,23.28,9.24,20.1,20s-16.07,24.48-34.44,13.6S477.82,229,477.82,229,531.84,200,543.09,202Z"/></clipPath><clipPath id="clip-path-15"><path class="cls-1" d="M28.78,289.35c-3.91,12.84-2.3,24.94,8.77,27s29.1-3.24,27.71-24.55S82.4,243.38,82.4,243.38,32.1,278.43,28.78,289.35Z"/></clipPath><clipPath id="clip-path-16"><path class="cls-1" d="M526.43,253.52c3.8,5.15,5,10.85.35,13.53s-13.6,3.17-16.37-6.63-15.4-19-15.4-19S523.2,249.13,526.43,253.52Z"/></clipPath></defs><title>Ресурс 2</title><g id="Слой_2" data-name="Слой 2"><g id="Capa_1" data-name="Capa 1"><path d="M467.36,211.37c.57-.31,14.15-7.58,29.38-14.72,29.61-13.89,40.63-15.79,48.82-14.35a60.75,60.75,0,0,1,16.68,5.34c16.37,8.2,23.88,23.92,19.13,40-2.92,9.92-11,22.66-24.8,28.67-11.16,4.85-23.81,4.26-35.63-1.66-1.13-.57-2.27-1.19-3.39-1.85-.31-.18-.64-.36-1-.54-10-5-29.34-4.5-37.17-3.48L371.28,262.91Z"/><path d="M513.71,288a32.61,32.61,0,0,0,21.23-3.76,25.46,25.46,0,0,0,12.54-16.91c1.79-8.26-.51-17.34-6.47-25.55-2.87-4-7.21-9.94-41.55-19.67L391.57,191.56l90.51,65.87c3.09,2.34,6.89,6.42,7.7,8.26,3.35,12,12.28,20.34,23.92,22.33Z"/><path class="cls-1" d="M296.22,723h0Zm-3.68-.6A808.46,808.46,0,0,1,202,701.16C143.11,683.63,98.83,662.24,73,639V236.34a312,312,0,0,1,49.93-26.23c35.3-14.88,93.36-32.62,169.54-32.62,118.9,0,194.46,42.26,219.46,58.81V639C458.79,686.83,340.3,714.6,292.54,722.36Z"/><path d="M292.46,202.49a440.44,440.44,0,0,1,91.18,9.32,381.09,381.09,0,0,1,66.67,20.52,310.45,310.45,0,0,1,36.62,18v376.9c-23.84,18-62.17,35.39-110.52,49.83A789.58,789.58,0,0,1,292.46,697,789.5,789.5,0,0,1,208.52,677c-48.35-14.44-86.68-31.8-110.52-49.83V250.26a308.63,308.63,0,0,1,32.79-16.32,377.79,377.79,0,0,1,67.67-21.52,439.28,439.28,0,0,1,94-9.93m0-50c-157.71,0-244.47,71-244.47,71v426c67.31,71.28,244.47,98.21,244.47,98.21s177.16-26.92,244.47-98.21v-426s-86.76-71-244.47-71Z"/><polygon points="291.54 711.98 106.27 664.55 70.59 617.82 81.81 541.84 82.9 441.41 118.53 484.74 226.55 492.06 366.58 493.56 478.65 482.08 494.62 493.56 517.51 523.56 494.62 632.64 483.56 660.05 384.05 700.55 291.54 711.98"/><path class="cls-1" d="M106.27,632.64S192,657.76,292.46,666.1v52.33L132.25,669.76Z"/><path class="cls-4" d="M478.65,632.64s-85.73,25.12-186.19,33.46v52.33l160.21-48.67Z"/><path class="cls-5" d="M536.93,223.47s-86.76-71-244.47-71S48,223.47,48,223.47v426c67.31,71.28,244.47,98.21,244.47,98.21s177.16-26.92,244.47-98.21Z"/><path class="cls-5" d="M560.89,112.05a78.62,78.62,0,0,0-28.62-34.88,62.89,62.89,0,0,0-4-16.54C520,39.15,500.71,22.05,471,9.8a95.47,95.47,0,0,0-36.41-7.67A79.1,79.1,0,0,0,385.73,19c-7.78-5.26-17.16-8.8-28-10.57a59,59,0,0,0-9.43-.78,47.4,47.4,0,0,0-28.67,9.12A76.47,76.47,0,0,0,271.45,0c-14.48,0-29.62,3.9-45,11.58-19.81,9.9-33.91,22.5-42,37.52a132.17,132.17,0,0,0-19.73-4.56,117.23,117.23,0,0,0-18.77-1.59A89.5,89.5,0,0,0,121,46.36c-31.61,9.16-56.52,29.57-68.34,56A119.68,119.68,0,0,0,42.29,144c-1,17.53,2.52,33.41,10.4,47.2A84.53,84.53,0,0,0,66.6,209.38c6.92,7.2,18.39,14.77,25.31,19l1,1c.73,1,1.64,2.16,2.7,3.46a63.83,63.83,0,0,0,0,17,63.16,63.16,0,0,0,12.33,29.9c.78,1.1,1.53,2.11,2.3,3.06,7.08,8.83,18.32,15.62,26.8,19.87L72.35,401.91,61.22,419l20.3-1.63c1-.08,102.5-8.24,203.24-18.09,59.23-5.79,106.64-11,140.92-15.55,20.5-2.71,36.53-5.2,47.66-7.42,16.86-3.35,24.27-5.9,26.51-13a11,11,0,0,0-3.63-11.81l0,0,0,0c-6-5-57.45-61.45-81-88a113,113,0,0,0,27.9-10.85c15.63-8.45,24.15-18.78,28.77-28a21.75,21.75,0,0,0,5.63.7,28.67,28.67,0,0,0,3.93-.28,71.84,71.84,0,0,0,7.2.37c21.34,0,40-9.26,54-26.78,11.7-14.66,19.13-29.71,22.09-44.72A72.26,72.26,0,0,0,560.89,112.05Z"/><path class="cls-5" d="M41.41,337.29a45.3,45.3,0,0,1-8-.7,31.92,31.92,0,0,1-21.9-14.72c-6-9.79-7-23.16-2.63-37.64,2.38-8,9-17,34.7-37.22,13.21-10.41,25.8-19.29,26.32-19.67L159,164.53,98,254.89c-6,9-14.19,26.09-13.5,35.91,1.16,16.54-5.21,27.11-10.76,33.07-7.95,8.53-19.72,13.42-32.3,13.42Z"/><path class="cls-6" d="M428.08,21.15"/><path class="cls-6" d="M175,292.62a58.45,58.45,0,0,1-10.25-.92c-14-2.5-27.62-6-39.55-20.85-.6-.75-1.18-1.53-1.83-2.45a44.07,44.07,0,0,1-6.87-41.09,79.92,79.92,0,0,1-8.89-10.24l-3.6-3.75c-4.17-2.51-17.43-10.74-23.76-17.42a65.2,65.2,0,0,1-10.92-14.25c-10.91-19.09-10.58-45.79.87-71.42,9.51-21.27,30-37.81,56.14-45.39a69.33,69.33,0,0,1,19.55-2.66,98.53,98.53,0,0,1,15.75,1.35A108.33,108.33,0,0,1,180.38,68L185.95,70a43.74,43.74,0,0,1,11.18-3.34l.71-.09c4.77-15.09,17.27-27.79,37.22-37.76,12.67-6.34,24.91-9.55,36.38-9.55,25.51,0,41.25,15.26,49.32,26.37a35.74,35.74,0,0,1,5.4-8.74,28.19,28.19,0,0,1,22.12-9.93,39.73,39.73,0,0,1,6.34.53c14.44,2.35,24.69,8.43,30.46,18.08l.27.46c10.24-12.35,26.22-24.64,49.26-24.64a76.42,76.42,0,0,1,29.08,6.22c24.62,10.16,40.32,23.62,46.67,40a43,43,0,0,1,2.71,20.8c11.61,5.12,24.06,16.27,30,30.9,5.87,14.48,7.94,37.9-15.52,67.31-10.21,12.79-23.68,19.55-39,19.55-12.83,0-24.18-4.76-30.69-8.18a34.55,34.55,0,0,1-.09,7.52c-1.51,12.3-9.55,22.46-23.9,30.22-13.33,7.21-26.22,10.86-38.29,10.86a54.13,54.13,0,0,1-36.84-14q-.95,1-1.91,2C342.52,253.39,326.27,263,308.57,263a49.4,49.4,0,0,1-8-.66,45,45,0,0,1-5.39-1.23c-10.53-1.83-20.8-8-28.27-16.87a40.47,40.47,0,0,1-5.31-8.33A87.94,87.94,0,0,1,250,241.47l16.29,3.58-27.91,10.2c-.66.71-1.54,1.69-2.36,2.59-5.44,6-14.55,16-21.65,21C200.93,288.1,188.08,292.62,175,292.62Z"/><path d="M271.45,28.45c33.64,0,47.56,32.1,47.56,32.1-2.77,15.69,6.92,31.37,6.92,31.37s-8.8-55.78,22.36-55.78a30.3,30.3,0,0,1,4.86.41c36.91,6,26.1,37.48,26.1,37.48s16-43.46,55.38-43.47a66.83,66.83,0,0,1,25.56,5.52C518.31,60.1,502,94.64,502,94.64c17.11,2.18,59.24,34.89,18.3,86.19-9.8,12.28-21.29,16.08-31.76,16.08-16.93,0-31.17-9.94-31.17-9.94-4.93-16.13-23.36-16.37-24.41-16.37h0s37.9,34.62-3.44,57c-13.23,7.15-24.5,9.75-33.9,9.75a44.84,44.84,0,0,1-36.93-18.67,130.6,130.6,0,0,1-8.8,9.79c-10.59,14.08-24.35,25.3-41.33,25.3a40,40,0,0,1-6.46-.53,35.63,35.63,0,0,1-4.79-1.13c-8.86-1.39-17.4-6.76-23.3-13.79-5-6-8.12-15.82-8.73-23.81-.56-7.2.5-13.16,2.13-19.53,0,0-9.37,12-7.32,31-18,12.11-43,12.43-32,19.21a16.71,16.71,0,0,0,5.18,2.07c-1,.37-15.23,17.68-24.26,24-10.76,7.47-21.83,12.18-34,12.18a48.94,48.94,0,0,1-8.62-.78c-14-2.49-24.36-5.56-34-17.54-.56-.7-1.08-1.42-1.59-2.15a35.27,35.27,0,0,1-4.55-35.44,24.64,24.64,0,0,1,1-3.46c-5.49-3-12.55-12.9-12.55-12.9l-4.9-5.11s-16.63-9.8-23-16.6a55.51,55.51,0,0,1-9.5-12.37c-10.94-19.15-7.33-43.81,1.28-63.07C88.16,92.77,108.59,79.59,129,73.69a60.67,60.67,0,0,1,17-2.29,89.92,89.92,0,0,1,14.28,1.23,100.78,100.78,0,0,1,17.11,4.09,39.84,39.84,0,0,0-6.81,5.77c-8.37,8.77-10.6,19.39-9.63,31.57,9.82-34.92,37.36-38.28,37.36-38.28-.5,24.3,15.33,30.75,15.33,30.75h0s-31.48-41,25.61-69.5c12.32-6.16,23-8.57,32.26-8.57m0-18.45c-12.92,0-26.54,3.54-40.51,10.52-20,10-33.4,22.74-39.93,37.94-1.51.39-3.3.92-5.28,1.65l-2.3-.81a117.41,117.41,0,0,0-20.29-4.9,107.46,107.46,0,0,0-17.19-1.46,79.51,79.51,0,0,0-22.12,3C95,64.3,72.44,82.71,61.83,106.45a109.59,109.59,0,0,0-9.55,38.08c-.87,15.57,2.19,29.6,9.09,41.68a74.48,74.48,0,0,0,12.36,16.15c6.68,7,19,14.85,24.52,18.22l2.32,2.43c1.36,1.84,3.33,4.37,5.71,7a54.39,54.39,0,0,0-.77,18.58A53.1,53.1,0,0,0,116,273.87c.7,1,1.37,1.9,2,2.74C132,294,148,298.07,163.18,300.79A67.69,67.69,0,0,0,175,301.85c15,0,29.55-5.06,44.54-15.47,7.35-5.1,15.5-13.83,23.22-22.34l.82-.9,21.19-7.77a57.16,57.16,0,0,0,28.3,14.71,54.17,54.17,0,0,0,6,1.34,58.67,58.67,0,0,0,9.45.78c11.62,0,22.8-3.51,33.26-10.44a88.78,88.78,0,0,0,18.3-16.57,64,64,0,0,0,35.5,10.59c13.62,0,28-4,42.67-12,18.23-9.85,25.28-22.29,27.77-32.32a70.84,70.84,0,0,0,22.52,3.88c18.2,0,34.16-8,46.18-23,10.69-13.39,17.45-27,20.09-40.41a62.43,62.43,0,0,0-3.23-36.12,68.5,68.5,0,0,0-29.06-32.92A52.44,52.44,0,0,0,519,64.24c-7.29-18.83-24.7-34-51.75-45.2a85.55,85.55,0,0,0-32.59-6.92c-18.16,0-34.8,6.83-48.69,19.87-6.16-5.85-15.56-11.33-29.83-13.65a49,49,0,0,0-7.82-.65C336.87,17.7,327,22,319.7,30.24,306.32,17,289.68,10,271.45,10Z"/><path class="cls-7" d="M213.58,106.53s-18.24-44.26,31.57-62.25S319,60.56,319,60.56L312.5,36.89,294.51,24l-32.76-3.23-27.22,7.71-19.38,10.6L201.31,52.12,196.7,66,200.85,81l5.84,17.22A18.9,18.9,0,0,0,213.58,106.53Z"/><path class="cls-7" d="M393.47,43l12.07-12,14.76-5.23,25.22-.62,36.3,13.42S492.89,51,502.11,61.49s9.23,15.39,9.23,15.39l-9.23,17.74C498.61,79.8,489.43,63,467.67,50.78c-48.6-27.33-74.2,0-74.2,0Z"/><path class="cls-7" d="M379.24,74.05l3.84-12.24s2.15-4,0-10.15S372,38.74,372,38.74L339.41,31l-8.3,2.77s-8.61,4.77-9.84,10.69,0,19.13,0,19.13.09,17.12,4.66,28.29c0,0-3.12-54.11,33.48-46.73,17.24,3.48,21,15.63,20.23,27.5"/><path class="cls-7" d="M88,99.2S111.81,71,169.48,83l7.74-10.46s-2.11-8.64-16.69-8.93a212.15,212.15,0,0,0-28.42,1.55L107.2,72.57l-16,7.48-8.3,9.57Z"/><path class="cls-7" d="M160.89,114.07S169.6,88,198.49,81.93l3.75-7.43-8.77-4.32-16.14,6.55L169.48,83l-4.24,9.09S159,107.5,160.89,114.07Z"/><path d="M271.45,28.45c33.64,0,47.56,32.1,47.56,32.1-2.77,15.69,6.92,31.37,6.92,31.37s-8.8-55.78,22.36-55.78a30.3,30.3,0,0,1,4.86.41c36.91,6,26.1,37.48,26.1,37.48s16-43.47,55.38-43.47a66.85,66.85,0,0,1,25.56,5.52C518.31,60.1,502,94.64,502,94.64c17.11,2.18,59.24,34.89,18.3,86.19-9,11.28-20.49,14.73-31.18,14.73-16.87,0-31.75-8.59-31.75-8.59s5.84-8.78-24.46-16.37c0,0,37.9,34.62-3.44,57-13.23,7.15-24.5,9.75-33.9,9.75a44.84,44.84,0,0,1-36.93-18.67,130.6,130.6,0,0,1-8.8,9.79c-10.59,14.08-24.35,25.3-41.33,25.3a40,40,0,0,1-6.46-.53,35.63,35.63,0,0,1-4.79-1.13c-8.86-1.39-17.4-6.76-23.3-13.79-5-6-8.12-15.82-8.73-23.81-.56-7.2.5-13.16,2.13-19.53,0,0-9.37,12-7.32,31-18,12.11-43,12.43-32,19.21a16.71,16.71,0,0,0,5.18,2.07c-1,.37-15.23,17.68-24.26,24-10.76,7.47-21.83,12.18-34,12.18a48.94,48.94,0,0,1-8.62-.78c-14-2.49-24.36-5.56-34-17.54-.56-.7-1.08-1.42-1.59-2.15a35.27,35.27,0,0,1-4.55-35.44,24.64,24.64,0,0,1,1-3.46c-5.49-3-12.55-12.9-12.55-12.9l-4.9-5.11s-16.63-9.8-23-16.6a55.51,55.51,0,0,1-9.5-12.37c-10.94-19.15-7.33-43.81,1.28-63.07C88.16,92.77,108.59,79.59,129,73.69a60.67,60.67,0,0,1,17-2.29,89.92,89.92,0,0,1,14.28,1.23,100.78,100.78,0,0,1,17.11,4.09,39.84,39.84,0,0,0-6.81,5.77c-8.37,8.77-10.6,19.39-9.63,31.57,9.82-34.92,37.36-38.28,37.36-38.28-.5,24.3,15.33,30.75,15.33,30.75h0s-31.48-41,25.61-69.5c12.32-6.16,23-8.57,32.26-8.57m0-18.45c-12.92,0-26.54,3.54-40.51,10.52-20,10-33.4,22.74-39.93,37.94-1.51.39-3.3.92-5.28,1.65l-2.3-.81a117.42,117.42,0,0,0-20.29-4.9,107.46,107.46,0,0,0-17.19-1.46,79.51,79.51,0,0,0-22.12,3c-28.78,8.34-51.38,26.74-62,50.49a109.59,109.59,0,0,0-9.55,38.08c-.87,15.57,2.19,29.6,9.09,41.68a74.48,74.48,0,0,0,12.36,16.15c6.68,7,19,14.86,24.52,18.22l2.33,2.43c1.36,1.84,3.33,4.37,5.71,7a54.39,54.39,0,0,0-.77,18.58A53.11,53.11,0,0,0,116,273.87c.7,1,1.37,1.9,2,2.74C132,294,148,298.07,163.18,300.79A67.69,67.69,0,0,0,175,301.85c15,0,29.54-5.06,44.54-15.47,7.35-5.1,15.5-13.83,23.22-22.34l.82-.9,21.19-7.77a57.16,57.16,0,0,0,28.3,14.71,54.18,54.18,0,0,0,6,1.34,58.67,58.67,0,0,0,9.45.78c11.62,0,22.8-3.51,33.26-10.44a88.79,88.79,0,0,0,18.3-16.57,64,64,0,0,0,35.5,10.59c13.62,0,28-4,42.67-12,18.83-10.18,25.74-23.12,28-33.31A80.69,80.69,0,0,0,489.16,214c18.52,0,34.29-7.5,45.6-21.68,10.69-13.39,17.45-27,20.09-40.41a62.43,62.43,0,0,0-3.24-36.12,68.5,68.5,0,0,0-29.06-32.92A52.43,52.43,0,0,0,519,64.25c-7.29-18.83-24.7-34-51.75-45.2a85.57,85.57,0,0,0-32.6-6.92c-18.16,0-34.79,6.83-48.69,19.87-6.16-5.85-15.56-11.33-29.83-13.65a49,49,0,0,0-7.82-.65C336.87,17.7,327,22,319.7,30.24,306.32,17,289.68,10,271.45,10Z"/><path d="M127.31,224s-31.19-25.67-9.5-53.81c0,0-22.61,8.77-18.45,37.83l11.07,13.38,5.07,5.07Z"/><path class="cls-6" d="M284.57,70.17a22.15,22.15,0,0,1-39.42,20.2"/><path d="M284.57,70.17a17.27,17.27,0,0,1,4.84,8.11,21.42,21.42,0,0,1,.32,10,23.22,23.22,0,0,1-4.33,9.44A24.09,24.09,0,0,1,267,107.14a23.2,23.2,0,0,1-10.19-2,21.38,21.38,0,0,1-7.94-6.1,17.24,17.24,0,0,1-3.75-8.67,27.09,27.09,0,0,0,14.14,7.18,21.61,21.61,0,0,0,22.86-11.71A27,27,0,0,0,284.57,70.17Z"/><path d="M434.74,92a30,30,0,0,0,2,34.53,30,30,0,0,0-36.32,28l0,0c-.33-.77-.65-1.55-1-2.34s-.49-1.63-.71-2.46-.33-1.68-.47-2.54-.16-1.73-.19-2.6,0-1.75.07-2.63.18-1.76.35-2.63.38-1.72.64-2.61.64-1.85,1-2.7c.3-.69.63-1.37.94-2l.82-1.36.71-1.16c.52-.74,1.09-1.46,1.64-2.18s1.24-1.34,1.88-2,1.38-1.22,2.08-1.81,1.5-1.07,2.26-1.6,1.61-.91,2.42-1.36,1.7-.75,2.55-1.11,1.77-.57,2.66-.85,1.82-.4,2.74-.57l1.29-.15-.44-1.21c-.26-.9-.48-1.81-.7-2.71s-.3-1.84-.42-2.76-.11-1.86-.13-2.78.06-1.85.15-2.77.25-1.83.43-2.74.44-1.79.7-2.67.6-1.72,1-2.58.88-1.81,1.32-2.62l.61-.95.31-.47.15-.24.08-.12,0-.06,0,0,.14-.23c.55-.72,1.1-1.42,1.67-2.11s1.25-1.29,1.87-1.92,1.36-1.15,2-1.72,1.47-1,2.2-1.47,1.55-.83,2.32-1.23,1.61-.67,2.41-1,1.66-.48,2.48-.71,1.68-.32,2.52-.45l1.89-.12A29.9,29.9,0,0,0,434.74,92Z"/><path d="M181.37,178.59a20.26,20.26,0,0,0-19.16-13.29,20.25,20.25,0,0,0,.23-30.92h0l1.65.46q.8.3,1.6.64c.51.26,1,.52,1.54.81s1,.63,1.46,1,.92.74,1.36,1.13.86.83,1.25,1.28.75.92,1.12,1.42.72,1.11,1,1.64.46.9.7,1.35l.38,1,.32.86c.17.59.32,1.18.48,1.78s.19,1.22.29,1.83.07,1.24.1,1.86-.06,1.24-.09,1.87-.19,1.23-.29,1.85-.31,1.21-.47,1.82-.43,1.18-.66,1.76-.54,1.13-.84,1.69l-.46.75.83.27c.58.24,1.16.5,1.73.75s1.1.61,1.64.92,1,.71,1.53,1.08,1,.8,1.41,1.23.87.89,1.27,1.36.77,1,1.12,1.48.66,1,1,1.59.6,1.22.84,1.79l.25.72.12.36.06.18,0,.09,0,0v0l.07.17c.15.59.3,1.18.43,1.77s.16,1.2.24,1.79,0,1.2.06,1.8-.09,1.19-.13,1.78-.2,1.17-.31,1.74-.31,1.13-.48,1.69-.44,1.08-.66,1.61-.53,1-.81,1.52l-.72,1.05A20.15,20.15,0,0,0,181.37,178.59Z"/><path d="M160.89,114.07s-8.79-22.91,10.9-43.89l10.3,4.55-2,4.46-6,6.46S159.68,100.66,160.89,114.07Z"/><path class="cls-8" d="M235.64,237.18l-4.42,17.4-12.45,21.7s8.93,8-21.76,10-36.74,0-36.74,0L150,281.71l-25.53-23.26-9.08-31.94-12.61-18.45L80.09,196.23,62.44,183.61l1-22.42L74.09,130.1S77,166.73,96.74,170.23c0,0,15.13-16.61,42.87-14.3,0,0-20.17,47.52,17.65,53.52,0,0,26.68,3.2,24.84,32.48s55.49-12.22,55.49-12.22Z"/><path class="cls-8" d="M348.8,181.51l18.46,36.65L385.92,234l19.51,7.92,23.2-8.58,15.53-15.18,3.58-10,21.84,1.89s1.36,11.71,24.57,0S533,171.31,533,171.31l4.65-14.85-1.08-7.94s-20.63,37.3-62.94,20.15-51.18-14.32-74.38-7.82c0,0,17.21,18.09,3.71,24.34l-8.75,6.5-12,.75L368,188.61l-20.25-7.67"/><path d="M433,170.6s29.13-3.52,34.79,24.62l-7.33,1.47-6.67-8.08L447.09,181Z"/><path d="M402.93,185.37c-43.83,5.07-35.22-18.76-35.22-18.76-27.84-.46-8.15-32.23-8.15-32.23-39.22,18.68-77.39-8.07-77.39-8.07-20.18,20.3-49.67,12.48-49.67,12.48a20.63,20.63,0,0,1-20.63,35.74,27.07,27.07,0,1,1-25,48s10.94,29.27,45.64,28.34l5.31-6.92-3.83-4.6c17-18.47,28.92-35.64,33-50.84l16,9.85,30.42,7.77s20.33,7.84,30.48,16.15,14.76,9.51,14.76,9.51l27.9,10.66,27-.53C377.55,218.64,402.93,185.37,402.93,185.37Z"/><path d="M264.92,141.7c-6.58,4.23-18.69,34.12-32.72,63.75-13.68,29.64-29.28,59-34.68,62.3-11.2,6.53-30.42,10.3-67.59,54.74-22.79,27.61-66.81,84.87-49.2,84.87,158.73,0,467.86-5.13,454.67-14.12-12.26-8.36-28.53-20.06-45.55-34.09-35.74-29.13-74.68-68.3-97.47-108.48-30.37-51.23-44.65-49.22-52.93-57.75A67.88,67.88,0,0,1,335,177.68C334.43,174,318.6,163,302.91,154,287,144.92,271.18,137.77,264.92,141.7Z"/><path class="cls-3" d="M94.78,387.28c.24,0,43.68-31.95,68.05-64.79,25-32.84,62.31-38,62.46-38,.42,0,1.67,72.53,78.93,102.76Z"/><g class="cls-9"><path class="cls-10" d="M225.29,284.52c-.09,0-32.46,8.41-53.68,74.29.38,0,27.28-27.39,46.61-17,20.58,10.36,8.22,25.41,86,45.5q-15.81-22-29.52-44A697.45,697.45,0,0,1,225.29,284.52Z"/></g><path d="M253.83,337.29s-16,45.77-56,57.77l24.41,6.05,22.09,3.62,21-13,34.73,3.33,15.82-3.33V371L300.2,352.72Z"/><path d="M225.29,284.52c.15,0-25.34,18.63-36.76,51.38.17,0,22.35-22.47,49-24.47Q231.07,298,225.29,284.52Z"/><path class="cls-3" d="M502.11,387.28H396.86c23.21-24-4.53-94.86-18.09-129.57-.19,0,35.85,33.39,66.25,107a135.26,135.26,0,0,0-5-32.29C439.85,332.38,470.57,367.19,502.11,387.28Z"/><g class="cls-11"><path class="cls-10" d="M378.76,257.71c-.35,0,29.69,32.26,47.23,101.35,0,0-6.75-10.51-14.39-15.42-.24,0,8.22,23.56-14.75,43.64l-7.34-48.95-8.07-53.81Q380.14,271.12,378.76,257.71Z"/></g><path class="cls-3" d="M283.49,188c-2,20.75-1.32,55.49,22.19,81,.05,0,10.75-10.41,9.86-41.11-.11,0,9.06,20.39,7.92,29.56.66,0,13.21-56-.12-69.24-6.89-7.07-17.12-11.71-25.15-14.5C291.19,171.25,284.51,177.22,283.49,188Z"/><g class="cls-12"><path class="cls-10" d="M283,208c.1,0,3.42-30.21,18.69-22.65C317.25,192.9,328,200,329.29,219.59l3.87-2.61q-.21-7.56-.45-15.13c.18,0,13.2-3.77-5.88-20.3-18.66-16.53-32.42-23.62-32.51-23.62l-11.7,2.36q-1.83,5-3.75,9.92-.78,7-1.58,13.9Q280,196.06,283,208Z"/></g><path class="cls-1" d="M269.49,194.13s-26.33,66.93-4.33,131.59-35.83,69.33-35.83,69.33,48.07,4.37,80.62-55.15,71.22,48.48,71.22,48.48,20.2-73-38.7-137.11c0,0-10.47,42.22-23.93,51.43C318.54,302.71,259.82,276.54,269.49,194.13Z"/><g class="cls-13"><path class="cls-14" d="M342.47,251.28l-73-57.15s-13.85,57.54,7.25,94.32c0,0-.16-9,1.84-12.23,0,0,31.08,47.71,72.41,36.1A20.22,20.22,0,0,1,340.83,320s19,7.16,33.25,37.75C374.08,357.72,375.46,297.42,342.47,251.28Z"/></g><path class="cls-3" d="M300.06,390.72s16.43-13.33,23.33-41c6-10.5,18.43,6,20.18,13.5,0,0,1.5-8-1.75-13.25,0,0,18,11.52,23.5,51.13l-32.63-2.38-32.63-3.67Z"/><path class="cls-1" d="M292.74,145.79s22.55-2.11,37.91,30.81c0,0-35.57-21.16-49.27-23.78,0,0,7.13-1,18.13,2.37C306,157.19,303.57,147.72,292.74,145.79Z"/><g class="cls-15"><path class="cls-14" d="M308.66,164.39s8.83,3.67,10.5,1.17.72-6.59-2.93-9.63l4.43-1.4,5.83,3.7,8.33,8.21s3.83,5.63,2.83,9,8.17,10.17-5,5.83-12.17-3.83-14.83-5.5a71.09,71.09,0,0,1-6.83-5.33Z"/></g><path d="M231.12,312.33s12.85,35.9-4.72,51.9S94.78,387.28,94.78,387.28l103.05,9.94,37.82-13.5,25-24-3.8-20-10.27-15.09-5.26-8Z"/><path class="cls-5" d="M583.07,592.46l-.9-8.46L562.92,403.83l-.9-8.46L553.38,394A1729,1729,0,0,0,29.7,394l-8.64,1.35-.9,8.46L.9,584,0,592.46,9.31,591q47.86-7.33,96-12.16l-.57,8.25-.58,8.42,9.42-.92a1875.09,1875.09,0,0,1,343.52-1.15l9.42.86-.54-8.41-.53-8.25q54.31,5.09,108.35,13.37Z"/><path class="cls-1" d="M162.08,539.65q-4.31-10.7-8.49-21.43-5.39.51-10.77,1.06-2,25.22-3.79,50.32,5.54-.61,11.1-1.17.85-12.42,1.73-24.87,2.48,8.68,5,17.33l7.92-.75q3.72-9.35,7.4-18.67-.77,12.51-1.52,25,5.54-.49,11.09-.93,1.36-24.95,2.81-50-5.86.44-11.7.92Q167.51,528,162.08,539.65Z"/><path class="cls-1" d="M203.12,514.33q-7.35,25.24-14.94,50.57V565q6.67-.5,13.35-.95.19-.65.46-1.92t.53-2.6l.48-2.42c.14-.72.24-1.2.31-1.45q5.17-.33,10.36-.63.39,2.69.63,4.78t.36,3.44q6.69-.38,13.39-.69v-.14q-5.53-24.46-10.68-48.94Q210.23,513.89,203.12,514.33Zm2.35,33,2.4-10.13q.5-2.17.91-4t.79-3.26q.81,5.59,1.44,9.87t1.09,7.1Z"/><path class="cls-1" d="M274.09,514.93a4.3,4.3,0,0,0-1.2-1.76,4.09,4.09,0,0,0-1.93-1,6.31,6.31,0,0,0-1.41-.26c-.51,0-1-.06-1.57,0l-1.21,0q-11,.18-22,.54l-1.61.05-1.13,0c-.54,0-1,.06-1.53.12a6.56,6.56,0,0,0-1.38.33,4.15,4.15,0,0,0-1.14.47,6.34,6.34,0,0,0-.91.68,3.92,3.92,0,0,0-.71.85c-.2.32-.38.64-.55,1a8.79,8.79,0,0,0-.48,2.58q-.55,18-1.08,35.95l0,1,0,1.14a8,8,0,0,0,.34,2.55,10,10,0,0,0,.51.94,3.19,3.19,0,0,0,.68.79,5.23,5.23,0,0,0,.89.6,3.74,3.74,0,0,0,1.15.38,6.36,6.36,0,0,0,1.4.23c.5,0,1,0,1.57,0l1.41-.05.5,0q12.38-.44,24.78-.66.83,0,1.62-.1a6.84,6.84,0,0,0,1.45-.31,5.64,5.64,0,0,0,2-1.1,5.15,5.15,0,0,0,1.6-3,10.71,10.71,0,0,0,.09-1.35q0-2.49,0-5,0-2.21,0-4.41l-3.37,0-2.47,0-4.36.08-2.63.05,0,3.06,0,2.49-1.48,0-1.07,0q-5.32.13-10.64.29l-1.07,0q.15-6.7.31-13.39.11-4.77.22-9.55l.1-4.28.07-3.06q7-.22,14-.36,0,1.39,0,2.78l0,2.71L265,527l2.44,0,4.23-.06,2.69,0q0-.53,0-1.07v-.64q0-.75,0-1.49l0-2.42q0-.39,0-.78t0-.85q0-.5,0-1t0-1.14a10.88,10.88,0,0,0-.07-1.35A4.45,4.45,0,0,0,274.09,514.93Z"/><path class="cls-1" d="M309.88,511.77q.11,9.61.21,19.22-8.69-.13-17.38-.14,0-9.61,0-19.21-6.18,0-12.35,0-.14,24.76-.27,49.52,6.35,0,12.69,0,0-10.28,0-20.56,8.74,0,17.47.15.11,10.28.22,20.57,6.39.1,12.77.26-.35-24.77-.72-49.56Q316.17,511.86,309.88,511.77Z"/><path class="cls-1" d="M328.76,512.17q.54,24.79,1.06,49.58l8.32.27,6,.23q-.74-24.81-1.52-49.63Q335.7,512.36,328.76,512.17Z"/><path class="cls-1" d="M377.89,514.37q.64,13.15,1.26,26.28-10.08-13.75-19.93-27.32-5.4-.26-10.79-.49.82,24.84,1.59,49.66,6.25.28,12.49.62-.49-13.14-1-26.28,10.09,13.64,20.4,27.47,5.56.38,11.12.8-1.3-24.93-2.68-49.91Q384.12,514.76,377.89,514.37Z"/><path class="cls-1" d="M410.19,556.88q-.38-6.29-.77-12.58,8.65.75,17.27,1.59-.29-4.18-.59-8.37-8.59-.83-17.2-1.57-.3-4.82-.61-9.64,9.34.78,18.65,1.68-.35-4.91-.71-9.83-15.46-1.47-31-2.62,1.44,25,2.81,50,15.91,1.27,31.73,2.89-.33-4.86-.67-9.73Q419.67,557.71,410.19,556.88Z"/><g class="cls-8"><path class="cls-16" d="M141.41,567.13c1.1-15.06,2.27-30.46,3.46-45.84l7.27-.72c2.57,6.59,5.22,13.28,7.89,19.9l4,.11q5.16-11,10.25-22l7.9-.62c-.9,15.57-1.76,30.86-2.56,45.53l-6.64.56q.67-11.22,1.36-22.45l-4.25-.94q-3.43,8.7-6.89,17.41l-4.77.45q-2.28-7.78-4.5-15.57l-4.31.45q-.81,11.52-1.6,23Z"/><path class="cls-17" d="M191.16,562.61c4.72-15.81,9.31-31.32,13.64-46.18q5.39-.33,10.79-.61c3.1,14.7,6.37,29.72,9.75,44.71l-8.72.45q-.07-.64-.16-1.38-.25-2.11-.64-4.83l-.29-2-2,.12q-5.19.3-10.37.63l-1.57.1-.41,1.52c-.07.27-.19.8-.35,1.6l-.48,2.42c-.18.88-.56,2.77-.58,2.86Zm16.28-33.25q-.4,1.49-.81,3.35t-.9,4c-.8,3.37-3.09,13-3.09,13l3-.18,6.62-.4,2.44-.14-.39-2.41q-.45-2.81-1.08-7.07t-1.44-9.86Z"/><path class="cls-18" d="M240,559.89l-.77,0a4.24,4.24,0,0,1-.92-.15l-.11,0-.11,0a1.57,1.57,0,0,1-.47-.15,3.08,3.08,0,0,1-.53-.36,1,1,0,0,1-.22-.25c-.12-.19-.23-.39-.33-.59a5.77,5.77,0,0,1-.2-1.69l.06-2.14q.53-18,1.08-35.94a6.57,6.57,0,0,1,.32-1.8c.12-.23.25-.45.38-.67a1.73,1.73,0,0,1,.32-.38,4.17,4.17,0,0,1,.6-.44,2,2,0,0,1,.53-.21l.1,0,.1,0a4.36,4.36,0,0,1,.92-.22c.41-.05.85-.09,1.32-.11l2.73-.09c7.27-.24,14.67-.42,22-.54l1.48,0c.37,0,.74,0,1.1,0a4.19,4.19,0,0,1,.92.17l.15,0a1.89,1.89,0,0,1,.91.49,2.24,2.24,0,0,1,.66.95,2.47,2.47,0,0,1,.19.69,8.83,8.83,0,0,1,.05,1.08l-.06,7.24-4.77.07-3.51.06.09-5.48-2.28,0q-7,.15-14.05.36l-2.08.06-.81,34.69,3.4-.1q5.3-.17,10.62-.29l4.67-.1.09-5.55,7.32-.13,1.12,0-.06,7.14a8.47,8.47,0,0,1-.07,1.08,2.3,2.3,0,0,1-.17.62,2.48,2.48,0,0,1-.68,1,3.43,3.43,0,0,1-1.23.66,4.82,4.82,0,0,1-1,.22q-.69.07-1.42.08c-8.17.14-16.52.36-24.82.66l-1.91.07Z"/><path class="cls-19" d="M321,559.31l-8.36-.17-.22-20.57-2.15,0c-5.86-.09-11.75-.14-17.5-.15h-2.21l0,20.56h-.47l-7.81,0q.12-22.56.24-45.12l7.74,0h.22l0,19.21h2.19c5.7,0,11.54.06,17.35.14l2.26,0L312.11,514l8.19.15Q320.64,536.74,321,559.31Z"/><path class="cls-20" d="M338.22,559.82l-6.24-.21q-.47-22.59-1-45.18,4.74.14,9.48.31.71,22.61,1.38,45.21Z"/><path class="cls-21" d="M390.7,562.73l-7.63-.55q-10-13.41-19.79-26.65l-4,1.39q.46,11.94.91,23.87l-8.06-.4q-.71-22.62-1.45-45.25l7.35.34c6.1,8.4,12.6,17.3,19.32,26.47l4-1.41q-.56-11.91-1.15-23.83l8,.54Q389.51,540,390.7,562.73Z"/><path class="cls-22" d="M427.4,565.94c-9.06-.91-18.21-1.74-27.26-2.47-.83-15.21-1.69-30.5-2.56-45.53,8.78.67,17.7,1.42,26.58,2.25l.39,5.37c-5.36-.51-10.75-1-16.08-1.44l-2.54-.21.88,14.08,1.89.16c5,.43,10.17.89,15.32,1.39q.14,2,.28,3.91c-5-.48-9.89-.93-14.7-1.34l-2.55-.22,1,17,1.89.17c5.63.49,11.35,1,17,1.6Z"/></g><path class="cls-23" d="M199,497.8h0q6.14-.38,12.28-.71.24-5.49.48-11,1.59-36.22,3.29-72.5.26-5.5.52-11-5.82.23-11.65.5h0q-23.14,1.07-46.25,2.71-5.81.41-11.62.86-.48,5.61-1,11.22-3.14,37-6.06,73.7-.44,5.57-.88,11.14,6.09-.61,12.19-1.18Q174.63,499.31,199,497.8Zm-32.09-74q12.55-.88,25.11-1.58-1.72,29-3.36,58l-2.7.18q-9.14.62-18.27,1.35l-2.84.23-2.09.17Q164.81,453,166.94,423.79Z"/><path class="cls-23" d="M250.69,401.52q-12.37.27-24.74.7-1.93,47.2-3.71,94.34,13.13-.61,26.28-1Q249.55,448.55,250.69,401.52Z"/><path class="cls-23" d="M310.73,495.06q0-9.44-.05-18.89-15.2-.19-30.41-.08.16-37.5.35-75-11.08.06-22.16.26-1,47-1.89,94Q283.64,494.72,310.73,495.06Z"/><path class="cls-23" d="M343.58,495.85q-1.42-47-2.94-94.13-12.37-.32-24.75-.48.72,47,1.39,93.93Q330.43,495.39,343.58,495.85Z"/><path class="cls-23" d="M377.28,497.4q-1.16-25-2.37-50,18.55,25.88,37.94,52.42,10.2.82,20.37,1.77-3.51-47.72-7.36-95.75-11.12-.79-22.26-1.46,1.71,25.15,3.35,50.25-18.77-26.31-36.69-51.94-9.63-.4-19.27-.71,1.75,47.15,3.37,94.25Q365.83,496.74,377.28,497.4Z"/><g class="cls-24"><path class="cls-25" d="M143,491.91c1.89-23.85,3.93-48.64,6.06-73.68l.67-7.83,8.21-.6c15.32-1.09,30.85-2,46.15-2.71l7.26-.32-.31,6.64c-1.14,24.47-2.25,48.87-3.29,72.51l-.32,7.37-8.69.51c-16.05,1-32.47,2.26-48.79,3.77l-7.46.71Zm48.79-73.7c-8.41.47-16.88,1-25.17,1.59l-3.46.24L163,423.5c-1.44,19.67-2.83,39.29-4.15,58.31l-.32,4.64,9.56-.78c6-.48,12.18-.93,18.23-1.34l6.22-.42.2-3.53c1.06-18.83,2.19-38.33,3.35-57.94l.27-4.48Z"/><path class="cls-26" d="M226.4,492.36c1.06-27.95,2.2-56.93,3.39-86.28,5.6-.18,11.22-.34,16.8-.48-.7,28.91-1.36,57.83-2,86.07C238.55,491.87,232.46,492.1,226.4,492.36Z"/><path class="cls-27" d="M260.66,491.26c.54-28,1.12-56.9,1.72-86,4.74-.07,9.5-.13,14.22-.17q-.18,35.48-.33,70.95l0,4,4,0q5.64,0,11.28,0c5,0,10.08,0,15.11.07l0,10.88c-5-.05-10.12-.08-15.15-.08C281.33,490.94,270.95,491,260.66,491.26Z"/><path class="cls-28" d="M339.45,491.71c-6.09-.19-12.19-.35-18.23-.47q-.61-43-1.27-85.94c5.58.08,11.21.19,16.81.33C337.69,434.62,338.6,463.53,339.45,491.71Z"/><path class="cls-29" d="M428.89,497.2c-4.66-.42-9.31-.82-13.88-1.19-13.89-19-25.95-35.72-36.84-50.92l-7.25,2.52q1.1,22.79,2.16,45.55c-5-.27-9.93-.51-14.84-.73-1-27.94-2-56.92-3.08-86.27,4.32.15,8.66.31,13,.48C378.85,422,390.5,438.48,403.7,457l7.25-2.58c-1-15-2-30.39-3-45.72,4.74.29,9.51.61,14.24.94C424.52,439.32,426.78,468.74,428.89,497.2Z"/></g><path class="cls-23" d="M46.3,417.06Q37.1,491,29.72,562.51,51,573.19,72.86,584.36q-5.93-13.42-11.7-26.8,22.08-3.32,44.45-6.15,9.09-1.14,18.23-2.18.65-8.29,1.32-16.6,1.41-17.53,2.88-35.11a51.28,51.28,0,0,0-.12-7.65q-.36-4.8-3-6.75A14.81,14.81,0,0,0,119,479.6q-3.47-1.14-7.42-2.73,3-2,6-4.2t7.61-5.56a13.59,13.59,0,0,0,5.39-8.63q.75-4.93,1.09-8.81,1.09-12.46,2.21-24.94.77-8.6,1.56-17.21-8.56.71-17.11,1.5Q82.25,412.35,46.3,417.06Zm45,109q-12.73,1.66-25.38,3.5,1.82-17.88,3.74-35.87l4.78-.65L82.45,492l8-1,4.59-.57Q93.14,508.27,91.35,526.06Zm6-59.54q-12.55,1.48-25,3.12,1.55-14.12,3.15-28.31,12.36-1.53,24.76-2.88Q98.78,452.51,97.37,466.53Z"/><path class="cls-30" d="M64.67,575.69C54.44,570.48,44.16,565.28,34,560.18c4.54-44.09,9.89-91,15.91-139.54,22.79-2.95,45.93-5.51,68.83-7.62,4.14-.38,8.27-.75,12.33-1.09q-.57,6.23-1.12,12.46-1.12,12.49-2.22,25c-.22,2.48-.57,5.36-1.06,8.56a9.63,9.63,0,0,1-3.85,6c-3,2.17-5.58,4-7.59,5.54s-3.85,2.79-5.79,4.06l.7,7.06c2.65,1.07,5.23,2,7.66,2.82a10.75,10.75,0,0,1,4.31,2.56l.21.21.24.17c1,.71,1.29,2.47,1.39,3.82a47.74,47.74,0,0,1,.12,7q-1.47,17.59-2.88,35.12-.54,6.67-1.06,13.32c-5,.58-10,1.18-15,1.81-14.1,1.76-28.67,3.78-44.55,6.17l-5.14.77,2.06,4.77C60,565,62.38,570.46,64.67,575.69ZM89.91,487l-8,1-8,1.06-7.89,1.08-.33,3.12c-1.29,12.09-2.55,24.17-3.75,35.89l-.52,5.1,5.07-.74c8.54-1.24,17.06-2.41,25.32-3.5l3.15-.41.32-3.16c1.17-11.71,2.4-23.71,3.65-35.66l.52-5Zm9.88-52.51c-8.25.9-16.6,1.88-24.81,2.89l-3.13.39-.35,3.14q-1.6,14.2-3.15,28.33l-.56,5.07,5.05-.67c8.32-1.1,16.73-2.14,25-3.12l3.19-.38.32-3.2q1.41-14,2.86-28.06l.51-4.93Z"/><path class="cls-23" d="M555.14,562.84l.11,0v-.07h0q-.88-8.29-1.79-16.62-2-18-4-36.08l-.22,0q-1.35-11.77-2.76-23.6-24.5-3.77-49.26-6.91,1.21,11.66,2.38,23.28,8,1.06,16,2.18,1.31,12.39,2.58,24.72-18.91-2.76-38-5.14-3.92-43.32-8.25-87.09,18.4,1.9,36.74,4.18.91,8,1.81,16.05,16.73,2.16,33.38,4.61-2.74-22.43-5.64-45.08-8.51-1.12-17-2.17l-1.21-.15q-33.27-4.06-66.69-6.93-8.56-.74-17.12-1.39.71,8.27,1.4,16.52,4.58,54.43,8.69,108.42.62,8.19,1.23,16.36,9.16,1,18.28,2.06,29.3,3.46,58.13,7.88Q518,571.2,512.13,584.59,533.89,573.46,555.14,562.84Z"/><path class="cls-31" d="M520.3,575.93c2.27-5.2,4.64-10.66,7.16-16.49l2.05-4.76-5.13-.78c-20.12-3-39.72-5.7-58.26-7.89-5-.59-10.06-1.17-15-1.7q-.49-6.52-1-13c-2.65-34.87-5.57-71.35-8.7-108.45q-.5-5.91-1-11.83c4.11.33,8.26.67,12.39,1,22.15,1.9,44.54,4.23,66.54,6.92l1.21.15c4.63.57,9.31,1.16,13.94,1.76,1.59,12.45,3.14,24.79,4.61,36.8-8.41-1.21-16.83-2.37-25.15-3.46q-.72-6.46-1.46-12.94l-.36-3.13L509,437.7c-12.22-1.52-24.61-2.93-36.82-4.19l-4.87-.5.48,4.88c2.94,29.72,5.71,59,8.25,87.06l.29,3.21,3.2.4c12.36,1.53,25.12,3.26,37.93,5.12l5.08.74-.52-5.11q-1.27-12.34-2.58-24.73l-.33-3.1-3.09-.44c-4.25-.6-8.56-1.19-12.85-1.77q-.76-7.55-1.54-15.12c13.52,1.75,27.32,3.7,41.15,5.8q1.22,10.31,2.4,20.56l.35,3,.22,0c1.28,11.19,2.52,22.29,3.69,33q.76,6.94,1.5,13.85C540.76,565.57,530.49,570.75,520.3,575.93Z"/><path class="cls-32" d="M141.41,588.94c98.08-7.22,195.66-7.5,292.66,0"/><polygon points="583.07 592.46 517.51 626.94 523.93 589.44 533.69 580.27 545.93 576.87 563.93 576.87 583.07 592.46"/><polygon class="cls-5" points="0 592.46 65.56 626.94 59.14 589.44 49.39 580.27 37.14 576.87 19.14 576.87 0 592.46"/><path d="M136,302.72s-25.9,41.65-52,54.67L87.19,373l15.25,4.06s14.82-22.3,27-32.72a125.33,125.33,0,0,0,19.6-21Z"/><path class="cls-1" d="M542.09,202c13.22,2.33,23.28,9.24,20.1,20s-16.07,24.48-34.44,13.6S476.82,229,476.82,229,530.84,200,542.09,202Z"/><g class="cls-33"><path class="cls-14" d="M476.82,229s44.24-22.67,62.31-13.33,25.72-3.36,13.29-10.56-27.49-7.21-27.49-7.21l-21.47,7.86-21.64,14.72Z"/></g><path class="cls-1" d="M27.78,289.35c-3.91,12.84-2.3,24.94,8.77,27s29.1-3.24,27.71-24.55S81.4,243.38,81.4,243.38,31.1,278.43,27.78,289.35Z"/><g class="cls-34"><path class="cls-14" d="M81.4,243.38s-40.25,29.18-40.09,49.53S26.66,314.32,25.87,300s6-27.78,6-27.78l16.73-15.58L71.55,244Z"/></g><path class="cls-1" d="M525.43,253.52c3.8,5.15,5,10.85.35,13.53s-13.6,3.17-16.37-6.63-15.4-19-15.4-19S522.2,249.13,525.43,253.52Z"/><g class="cls-35"><path class="cls-14" d="M494,241.37s22.74,6.72,25.9,15.89,10,7.3,8.06.72a29.66,29.66,0,0,0-7.12-11.53l-10-4.35-12.32-2Z"/></g><path class="cls-5" d="M468.36,211.37c.57-.31,14.15-7.58,29.38-14.72,29.61-13.89,40.63-15.79,48.82-14.35a60.75,60.75,0,0,1,16.68,5.34c16.37,8.2,23.88,23.92,19.13,40-2.92,9.92-11,22.66-24.8,28.67-11.16,4.85-23.81,4.26-35.63-1.66-1.13-.57-2.27-1.19-3.39-1.85-.31-.18-.64-.36-1-.54-10-5-29.34-4.5-37.17-3.48L372.28,262.91Z"/><path class="cls-5" d="M514.71,288a32.61,32.61,0,0,0,21.23-3.76,25.46,25.46,0,0,0,12.54-16.91c1.79-8.26-.51-17.34-6.47-25.55-2.87-4-7.21-9.94-41.55-19.67L392.57,191.56l90.51,65.87c3.09,2.34,6.89,6.42,7.7,8.26,3.35,12,12.28,20.34,23.92,22.33Z"/><path class="cls-1" d="M297.22,723h0Zm-3.68-.6A808.46,808.46,0,0,1,203,701.16C144.11,683.63,99.83,662.24,74,639V236.34a312,312,0,0,1,49.93-26.23c35.3-14.88,93.36-32.62,169.54-32.62,118.9,0,194.46,42.26,219.46,58.81V639C459.79,686.83,341.3,714.6,293.54,722.36Z"/><path class="cls-5" d="M293.46,202.49a440.44,440.44,0,0,1,91.18,9.32,381.09,381.09,0,0,1,66.67,20.52,310.45,310.45,0,0,1,36.62,18v376.9c-23.84,18-62.17,35.39-110.52,49.83A789.58,789.58,0,0,1,293.46,697,789.5,789.5,0,0,1,209.52,677c-48.35-14.44-86.68-31.8-110.52-49.83V250.26a308.63,308.63,0,0,1,32.79-16.32,377.79,377.79,0,0,1,67.67-21.52,439.28,439.28,0,0,1,94-9.93m0-50c-157.71,0-244.47,71-244.47,71v426c67.31,71.28,244.47,98.21,244.47,98.21s177.16-26.92,244.47-98.21v-426s-86.76-71-244.47-71Z"/><polygon class="cls-5" points="293.25 469.22 77.88 469.22 77.88 639.42 293.25 726.41 508.62 639.42 508.62 469.22 293.25 469.22"/><path class="cls-1" d="M107.27,632.64S193,657.76,293.46,666.1v52.33L133.25,669.76Z"/><path class="cls-4" d="M479.65,632.64s-85.73,25.12-186.19,33.46v52.33l160.21-48.67Z"/><path class="cls-5" d="M293.46,202.49a440.44,440.44,0,0,1,91.18,9.32,381.09,381.09,0,0,1,66.67,20.52,310.45,310.45,0,0,1,36.62,18v376.9c-23.84,18-62.17,35.39-110.52,49.83A789.58,789.58,0,0,1,293.46,697,789.5,789.5,0,0,1,209.52,677c-48.35-14.44-86.68-31.8-110.52-49.83V250.26a308.63,308.63,0,0,1,32.79-16.32,377.79,377.79,0,0,1,67.67-21.52,439.28,439.28,0,0,1,94-9.93m0-50c-157.71,0-244.47,71-244.47,71v426c67.31,71.28,244.47,98.21,244.47,98.21s177.16-26.92,244.47-98.21v-426s-86.76-71-244.47-71Z"/><path class="cls-5" d="M561.89,112.05a78.62,78.62,0,0,0-28.62-34.88,62.89,62.89,0,0,0-4-16.54C521,39.15,501.71,22.05,472,9.8a95.47,95.47,0,0,0-36.41-7.67A79.1,79.1,0,0,0,386.73,19c-7.78-5.26-17.16-8.8-28-10.57a59,59,0,0,0-9.43-.78,47.4,47.4,0,0,0-28.67,9.12A76.47,76.47,0,0,0,272.45,0c-14.48,0-29.62,3.9-45,11.58-19.81,9.9-33.91,22.5-42,37.52a132.17,132.17,0,0,0-19.73-4.56,117.23,117.23,0,0,0-18.77-1.59A89.5,89.5,0,0,0,122,46.36c-31.61,9.16-56.52,29.57-68.34,56A119.68,119.68,0,0,0,43.29,144c-1,17.53,2.52,33.41,10.4,47.2A84.53,84.53,0,0,0,67.6,209.38c6.92,7.2,18.39,14.77,25.31,19l1,1c.73,1,1.64,2.16,2.7,3.46a63.83,63.83,0,0,0,0,17,63.16,63.16,0,0,0,12.33,29.9c.78,1.1,1.53,2.11,2.3,3.06,7.08,8.83,18.32,15.62,26.8,19.87L73.35,401.91,62.22,419l20.3-1.63c.75-.06,55.84-4.49,125-10.75,156.65-1.75,339.06-6.39,328.87-13.34s-23.09-16.17-36.92-27.12a11.46,11.46,0,0,0,1.37-2.87,11,11,0,0,0-3.63-11.81l0,0,0,0c-6-5-57.45-61.45-81-88a113,113,0,0,0,27.9-10.85c15.63-8.45,24.15-18.78,28.77-28a21.75,21.75,0,0,0,5.63.7,28.67,28.67,0,0,0,3.93-.28,71.84,71.84,0,0,0,7.2.37c21.34,0,40-9.26,54-26.78,11.7-14.66,19.13-29.71,22.09-44.72A72.26,72.26,0,0,0,561.89,112.05Z"/><path class="cls-5" d="M42.41,337.29a45.3,45.3,0,0,1-8-.7,31.92,31.92,0,0,1-21.9-14.72c-6-9.79-7-23.16-2.63-37.64,2.38-8,9-17,34.7-37.22,13.21-10.41,25.8-19.29,26.32-19.67L160,164.53,99,254.89c-6,9-14.19,26.09-13.5,35.91,1.16,16.54-5.21,27.11-10.76,33.07-7.95,8.53-19.72,13.42-32.3,13.42Z"/><path class="cls-6" d="M429.08,21.15"/><path class="cls-2" d="M176,292.62a58.42,58.42,0,0,1-10.25-.92c-14-2.5-27.62-6-39.55-20.85-.6-.75-1.2-1.55-1.82-2.45a44.11,44.11,0,0,1-6.66-41.74,67.44,67.44,0,0,1-9.37-12.58L108.3,216l-13.6-9.3c-6.14-4.2-10.53-7.73-13.4-10.76a65.19,65.19,0,0,1-10.92-14.25c-10.91-19.09-10.58-45.79.87-71.42,9.51-21.27,30-37.81,56.14-45.39a69.34,69.34,0,0,1,19.55-2.66,98.52,98.52,0,0,1,15.75,1.35A108.33,108.33,0,0,1,181.38,68L186.95,70a43.74,43.74,0,0,1,11.18-3.34l.71-.09c4.77-15.09,17.27-27.79,37.22-37.76,12.67-6.34,24.91-9.55,36.38-9.55,25.5,0,41.24,15.26,49.32,26.37a35.72,35.72,0,0,1,5.4-8.74,28.19,28.19,0,0,1,22.12-9.93,39.73,39.73,0,0,1,6.34.53c14.44,2.35,24.69,8.43,30.46,18.08l.27.46c10.24-12.34,26.22-24.64,49.26-24.64a76.42,76.42,0,0,1,29.08,6.22c24.62,10.16,40.32,23.62,46.67,40a43,43,0,0,1,2.71,20.8c11.61,5.12,24.06,16.27,30,30.9,5.87,14.48,7.94,37.9-15.52,67.31-10.2,12.79-23.68,19.55-39,19.55h0c-12.83,0-24.18-4.76-30.68-8.19a34.56,34.56,0,0,1-.09,7.52c-1.51,12.3-9.55,22.46-23.9,30.22-13.34,7.21-26.22,10.86-38.29,10.86a54.13,54.13,0,0,1-36.84-14q-1,1-1.91,2C343.52,253.4,327.27,263,309.57,263a49.37,49.37,0,0,1-8-.66,44.74,44.74,0,0,1-5.39-1.23c-10.53-1.83-20.8-8-28.27-16.87a40.47,40.47,0,0,1-5.31-8.33A87.94,87.94,0,0,1,251,241.47l16.29,3.58-27.91,10.2c-.66.71-1.54,1.69-2.36,2.59-5.44,6-14.55,16-21.65,21C201.92,288.1,189.08,292.62,176,292.62Z"/><path class="cls-5" d="M272.45,28.45c33.63,0,47.56,32.1,47.56,32.1-2.77,15.69,6.92,31.37,6.92,31.37s-8.81-55.78,22.36-55.78a30.35,30.35,0,0,1,4.86.41c36.91,6,26.1,37.48,26.1,37.48s16-43.47,55.38-43.47a66.87,66.87,0,0,1,25.56,5.52C519.31,60.1,503,94.64,503,94.64c17.11,2.18,59.24,34.89,18.3,86.19-9.8,12.28-21.29,16.08-31.76,16.08-16.93,0-31.17-9.94-31.17-9.94-4.93-16.14-23.36-16.37-24.41-16.37h0s37.9,34.62-3.44,57c-13.23,7.15-24.5,9.75-33.9,9.75a44.85,44.85,0,0,1-36.93-18.67,130.55,130.55,0,0,1-8.8,9.79c-10.59,14.08-24.35,25.3-41.32,25.3a40,40,0,0,1-6.46-.53,35.61,35.61,0,0,1-4.79-1.13c-8.86-1.39-17.4-6.76-23.3-13.79-5-6-8.12-15.82-8.73-23.81-.56-7.2.5-13.16,2.13-19.53,0,0-9.37,12-7.32,31-18,12.11-43,12.43-32,19.21a16.71,16.71,0,0,0,5.18,2.07c-1,.37-15.23,17.68-24.26,24-10.76,7.47-21.83,12.18-34,12.18a49,49,0,0,1-8.62-.78c-14-2.49-24.36-5.56-34-17.54-.56-.7-1.08-1.42-1.59-2.15a35.27,35.27,0,0,1-4.55-35.43,24.65,24.65,0,0,1,1-3.46s-31.19-25.67-9.5-53.81c0,0-17.8,6.92-18.9,28.81-4.47-3.06-9.24-6.62-12-9.61a55.51,55.51,0,0,1-9.5-12.37c-10.94-19.15-7.33-43.81,1.28-63.07C89.16,92.77,109.59,79.59,130,73.69a60.66,60.66,0,0,1,17-2.29,90,90,0,0,1,14.28,1.23,100.79,100.79,0,0,1,17.11,4.09,39.83,39.83,0,0,0-6.81,5.77c-8.37,8.77-10.6,19.39-9.63,31.57,9.82-34.92,37.36-38.28,37.36-38.28-.5,24.3,15.33,30.75,15.33,30.75h0s-31.47-41,25.61-69.5c12.32-6.16,23-8.58,32.26-8.57m0-18.45h0c-12.91,0-26.54,3.54-40.5,10.52-20,10-33.4,22.74-39.93,37.94-1.51.39-3.3.92-5.28,1.65l-2.3-.81a117.43,117.43,0,0,0-20.29-4.9,107.46,107.46,0,0,0-17.19-1.46,79.5,79.5,0,0,0-22.12,3C96,64.3,73.44,82.71,62.83,106.45a109.59,109.59,0,0,0-9.55,38.08c-.87,15.57,2.19,29.6,9.09,41.68a74.48,74.48,0,0,0,12.36,16.15,94.23,94.23,0,0,0,14.77,11.91L103.78,224c1.25,1.8,2.51,3.44,3.73,4.93a54.46,54.46,0,0,0-1,19.6A53.1,53.1,0,0,0,117,273.87c.7,1,1.37,1.89,2,2.74C133,294,149,298.07,164.18,300.79A67.68,67.68,0,0,0,176,301.85c15,0,29.55-5.06,44.54-15.47,7.35-5.1,15.5-13.83,23.22-22.34l.82-.9,21.19-7.77a57.16,57.16,0,0,0,28.3,14.71,54.17,54.17,0,0,0,6,1.34,58.68,58.68,0,0,0,9.45.78c11.62,0,22.8-3.51,33.26-10.44a88.78,88.78,0,0,0,18.3-16.57,64,64,0,0,0,35.5,10.59c13.62,0,28-4,42.67-12,18.23-9.85,25.29-22.29,27.77-32.32a70.83,70.83,0,0,0,22.52,3.88c18.19,0,34.16-8,46.18-23,10.69-13.39,17.45-27,20.09-40.41a62.43,62.43,0,0,0-3.23-36.12,68.5,68.5,0,0,0-29.06-32.92A52.44,52.44,0,0,0,520,64.24c-7.29-18.83-24.7-34-51.75-45.2a85.57,85.57,0,0,0-32.6-6.92c-18.16,0-34.8,6.83-48.69,19.87-6.16-5.85-15.56-11.33-29.83-13.65a49,49,0,0,0-7.82-.65c-11.42,0-21.29,4.33-28.6,12.54C307.31,17,290.68,10,272.45,10Z"/><path class="cls-7" d="M214.58,106.53s-18.24-44.26,31.57-62.25S320,60.56,320,60.56L313.5,36.89,295.51,24l-32.76-3.23-27.22,7.71-19.38,10.6L202.31,52.12,197.7,66,201.85,81l5.84,17.22A18.9,18.9,0,0,0,214.58,106.53Z"/><path class="cls-7" d="M394.47,43l12.07-12,14.76-5.23,25.22-.62,36.3,13.42S493.89,51,503.11,61.49s9.23,15.39,9.23,15.39l-9.23,17.74C499.61,79.8,490.43,63,468.67,50.78c-48.6-27.33-74.2,0-74.2,0Z"/><path class="cls-7" d="M380.24,74.05l3.84-12.24s2.15-4,0-10.15S373,38.74,373,38.74L340.41,31l-8.3,2.77s-8.61,4.77-9.84,10.69,0,19.13,0,19.13.09,17.12,4.66,28.29c0,0-3.12-54.11,33.48-46.73,17.24,3.48,21,15.63,20.23,27.5"/><path class="cls-7" d="M89,99.2S112.81,71,170.48,83l7.74-10.46s-2.11-8.64-16.69-8.93a212.15,212.15,0,0,0-28.42,1.55L108.2,72.57l-16,7.48-8.3,9.57Z"/><path class="cls-7" d="M161.89,114.07S170.6,88,199.49,81.93l3.75-7.43-8.77-4.32-16.14,6.55L170.48,83l-4.24,9.09S160,107.5,161.89,114.07Z"/><path class="cls-5" d="M272.45,28.45c33.64,0,47.56,32.1,47.56,32.1-2.77,15.69,6.92,31.37,6.92,31.37s-8.8-55.78,22.36-55.78a30.3,30.3,0,0,1,4.86.41c36.91,6,26.1,37.48,26.1,37.48s16-43.47,55.38-43.47a66.85,66.85,0,0,1,25.56,5.52C519.31,60.1,503,94.64,503,94.64c17.11,2.18,59.24,34.89,18.3,86.19-9,11.28-20.49,14.73-31.18,14.73-16.87,0-31.75-8.59-31.75-8.59s5.84-8.78-24.46-16.37c0,0,37.9,34.62-3.44,57-13.23,7.15-24.5,9.75-33.9,9.75a44.84,44.84,0,0,1-36.93-18.67,130.6,130.6,0,0,1-8.8,9.79c-10.59,14.08-24.35,25.3-41.33,25.3a40,40,0,0,1-6.46-.53,35.63,35.63,0,0,1-4.79-1.13c-8.86-1.39-17.4-6.76-23.3-13.79-5-6-8.12-15.82-8.73-23.81-.56-7.2.5-13.16,2.13-19.53,0,0-9.37,12-7.32,31-18,12.11-43,12.43-32,19.21a16.71,16.71,0,0,0,5.18,2.07c-1,.37-15.23,17.68-24.26,24-10.76,7.47-21.83,12.18-34,12.18a48.94,48.94,0,0,1-8.62-.78c-14-2.49-24.36-5.56-34-17.54-.56-.7-1.08-1.42-1.59-2.15a35.27,35.27,0,0,1-4.55-35.44,24.64,24.64,0,0,1,1-3.46c-5.49-3-12.55-12.9-12.55-12.9l-4.9-5.11s-16.63-9.8-23-16.6a55.51,55.51,0,0,1-9.5-12.37c-10.94-19.15-7.33-43.81,1.28-63.07C89.16,92.77,109.59,79.59,130,73.69a60.67,60.67,0,0,1,17-2.29,89.92,89.92,0,0,1,14.28,1.23,100.78,100.78,0,0,1,17.11,4.09,39.84,39.84,0,0,0-6.81,5.77c-8.37,8.77-10.6,19.39-9.63,31.57,9.82-34.92,37.36-38.28,37.36-38.28-.5,24.3,15.33,30.75,15.33,30.75h0s-31.48-41,25.61-69.5c12.32-6.16,23-8.57,32.26-8.57m0-18.45c-12.92,0-26.54,3.54-40.51,10.52-20,10-33.4,22.74-39.93,37.94-1.51.39-3.3.92-5.28,1.65l-2.3-.81a117.42,117.42,0,0,0-20.29-4.9,107.46,107.46,0,0,0-17.19-1.46,79.51,79.51,0,0,0-22.12,3c-28.78,8.34-51.38,26.74-62,50.49a109.59,109.59,0,0,0-9.55,38.08c-.87,15.57,2.19,29.6,9.09,41.68a74.48,74.48,0,0,0,12.36,16.15c6.68,7,19,14.86,24.52,18.22l2.33,2.43c1.36,1.84,3.33,4.37,5.71,7a54.39,54.39,0,0,0-.77,18.58A53.11,53.11,0,0,0,117,273.87c.7,1,1.37,1.9,2,2.74C133,294,149,298.07,164.18,300.79A67.69,67.69,0,0,0,176,301.85c15,0,29.54-5.06,44.54-15.47,7.35-5.1,15.5-13.83,23.22-22.34l.82-.9,21.19-7.77a57.16,57.16,0,0,0,28.3,14.71,54.18,54.18,0,0,0,6,1.34,58.67,58.67,0,0,0,9.45.78c11.62,0,22.8-3.51,33.26-10.44a88.79,88.79,0,0,0,18.3-16.57,64,64,0,0,0,35.5,10.59c13.62,0,28-4,42.67-12,18.83-10.18,25.74-23.12,28-33.31A80.69,80.69,0,0,0,490.16,214c18.52,0,34.29-7.5,45.6-21.68,10.69-13.39,17.45-27,20.09-40.41a62.43,62.43,0,0,0-3.24-36.12,68.5,68.5,0,0,0-29.06-32.92A52.43,52.43,0,0,0,520,64.25c-7.29-18.83-24.7-34-51.75-45.2a85.57,85.57,0,0,0-32.6-6.92c-18.16,0-34.79,6.83-48.69,19.87-6.16-5.85-15.56-11.33-29.83-13.65a49,49,0,0,0-7.82-.65C337.87,17.7,328,22,320.7,30.24,307.32,17,290.68,10,272.45,10Z"/><path class="cls-2" d="M285.57,70.17a22.15,22.15,0,0,1-39.42,20.2"/><path class="cls-5" d="M285.57,70.17a17.27,17.27,0,0,1,4.84,8.11,21.42,21.42,0,0,1,.32,10,23.22,23.22,0,0,1-4.33,9.44A24.09,24.09,0,0,1,268,107.14a23.2,23.2,0,0,1-10.19-2,21.38,21.38,0,0,1-7.94-6.1,17.24,17.24,0,0,1-3.75-8.67,27.09,27.09,0,0,0,14.14,7.18,21.61,21.61,0,0,0,22.86-11.71A27,27,0,0,0,285.57,70.17Z"/><path class="cls-5" d="M435.74,92a30,30,0,0,0,2,34.53,30,30,0,0,0-36.32,28l0,0c-.33-.77-.65-1.55-1-2.34s-.49-1.63-.71-2.46-.33-1.68-.47-2.54-.16-1.73-.19-2.6,0-1.75.07-2.63.18-1.76.35-2.63.38-1.72.64-2.61.64-1.85,1-2.7c.3-.69.63-1.37.94-2l.82-1.36.71-1.16c.52-.74,1.09-1.46,1.64-2.18s1.24-1.34,1.88-2,1.38-1.22,2.08-1.81,1.5-1.07,2.26-1.6,1.61-.91,2.42-1.36,1.7-.75,2.55-1.11,1.77-.57,2.66-.85,1.82-.4,2.74-.57l1.29-.15-.44-1.21c-.26-.9-.48-1.81-.7-2.71s-.3-1.84-.42-2.76-.11-1.86-.13-2.78.06-1.85.15-2.77.25-1.83.43-2.74.44-1.79.7-2.67.6-1.72,1-2.58.88-1.81,1.32-2.62l.61-.95.31-.47.15-.24.08-.12,0-.06,0,0,.14-.23c.55-.72,1.1-1.42,1.67-2.11s1.25-1.29,1.87-1.92,1.36-1.15,2-1.72,1.47-1,2.2-1.47,1.55-.83,2.32-1.23,1.61-.67,2.41-1,1.66-.48,2.48-.71,1.68-.32,2.52-.45l1.89-.12A29.9,29.9,0,0,0,435.74,92Z"/><path class="cls-5" d="M182.37,178.59a20.26,20.26,0,0,0-19.16-13.29,20.25,20.25,0,0,0,.23-30.92h0l1.65.46q.8.3,1.6.64c.51.26,1,.52,1.54.81s1,.63,1.46,1,.92.74,1.36,1.13.86.83,1.25,1.28.75.92,1.12,1.42.72,1.11,1,1.64.46.9.7,1.35l.38,1,.32.86c.17.59.32,1.18.48,1.78s.19,1.22.29,1.83.07,1.24.1,1.86-.06,1.24-.09,1.87-.19,1.23-.29,1.85-.31,1.21-.47,1.82-.43,1.18-.66,1.76-.54,1.13-.84,1.69l-.46.75.83.27c.58.24,1.16.5,1.73.75s1.1.61,1.64.92,1,.71,1.53,1.08,1,.8,1.41,1.23.87.89,1.27,1.36.77,1,1.12,1.48.66,1,1,1.59.6,1.22.84,1.79l.25.72.12.36.06.18,0,.09,0,0v0l.07.17c.15.59.3,1.18.43,1.77s.16,1.2.24,1.79,0,1.2.06,1.8-.09,1.19-.13,1.78-.2,1.17-.31,1.74-.31,1.13-.48,1.69-.44,1.08-.66,1.61-.53,1-.81,1.52l-.72,1.05A20.15,20.15,0,0,0,182.37,178.59Z"/><path class="cls-5" d="M161.89,114.07s-8.79-22.91,10.9-43.89l10.3,4.55-2,4.46-6,6.46S160.68,100.66,161.89,114.07Z"/><path class="cls-8" d="M537.6,148.52s-20.63,37.3-62.94,20.15-51.18-14.32-74.38-7.82c0,0,17.21,18.09,3.71,24.34l-8.75,6.5-12,.75L369,188.61l-20.25-7.67,1,.57,18.46,36.65L386.92,234l8.11,3.29c9.71.31,21.5-2.16,35.49-9.72,9.06-4.9,14.31-10.38,17-16l1.22-3.41h.1c5.67-18.82-14.88-37.6-14.88-37.6s19.38-.24,24.46,16.37c0,0,37.27,26,62.92-6.14,9.32-11.68,14.32-22.39,16.31-32Z"/><path class="cls-5" d="M434,170.6s29.13-3.52,34.79,24.62l-7.33,1.47-6.67-8.08L448.09,181Z"/><path class="cls-8" d="M236.76,236.73l1.82-7s-57.33,41.5-55.49,12.22-24.84-32.48-24.84-32.48c-37.82-6-17.65-53.52-17.65-53.52-27.74-2.31-42.87,14.3-42.87,14.3C78,166.73,75.09,130.1,75.09,130.1l-2.5,7.3c-2.19,13.6-1,27.71,5.8,39.66a55.51,55.51,0,0,0,9.5,12.37c2.78,3,7.55,6.55,12,9.61,1.09-21.89,18.9-28.81,18.9-28.81-21.68,28.14,9.5,53.81,9.5,53.81a24.64,24.64,0,0,0-1,3.46,35.27,35.27,0,0,0,4.55,35.44c.51.73,1,1.45,1.59,2.15.92,1.14,1.84,2.18,2.77,3.16l5,4.57c7.53,5.8,15.88,8,26.18,9.8,15.69,2.8,29.4-2.21,42.64-11.4,8.52-5.92,21.67-21.67,24-23.73l.07-.28a16.65,16.65,0,0,1-5-2C223,241.42,228,239.64,236.76,236.73Z"/><path class="cls-5" d="M387.53,242.45l27-.53c-36-23.27-10.61-56.55-10.61-56.55-43.83,5.07-35.22-18.76-35.22-18.76-27.84-.46-8.15-32.23-8.15-32.23-39.22,18.68-77.39-8.07-77.39-8.07-20.18,20.3-49.67,12.48-49.67,12.48a20.63,20.63,0,0,1-20.63,35.74,27.07,27.07,0,1,1-25,48s10.94,29.27,45.64,28.34l5.31-6.92-3.83-4.6s32.06,44.08,76.56,44S387.53,242.45,387.53,242.45Z"/><path class="cls-2" d="M503.11,387.28H397.86c23.21-24-4.53-94.86-18.09-129.57-.19,0,35.85,33.39,66.25,107a135.26,135.26,0,0,0-5-32.29C440.85,332.38,471.57,367.19,503.11,387.28Z"/><g class="cls-36"><path class="cls-10" d="M379.76,257.71c-.35,0,29.69,32.26,47.23,101.35,0,0-6.75-10.51-14.39-15.42-.24,0,8.22,23.56-14.75,43.64l-7.34-48.95-8.07-53.81Q381.14,271.12,379.76,257.71Z"/></g><path class="cls-2" d="M284.49,188c-2,20.75-1.32,55.49,22.19,81,.05,0,10.75-10.41,9.86-41.11-.11,0,9.06,20.39,7.92,29.56.66,0,13.21-56-.12-69.24-6.89-7.07-17.12-11.71-25.15-14.5C292.19,171.25,285.51,177.22,284.49,188Z"/><g class="cls-37"><path class="cls-10" d="M284,208c.1,0,3.42-30.21,18.69-22.65C318.25,192.9,329,200,330.29,219.59l3.87-2.61q-.21-7.56-.45-15.13c.18,0,13.2-3.77-5.88-20.3-18.66-16.53-32.42-23.62-32.51-23.62l-11.7,2.36q-1.83,5-3.75,9.92-.78,7-1.58,13.9Q281,196.06,284,208Z"/></g><path class="cls-1" d="M270.49,194.13s-26.33,66.93-4.33,131.59-35.83,69.33-35.83,69.33,48.07,4.37,80.62-55.15,71.22,48.48,71.22,48.48,20.2-73-38.7-137.11c0,0-10.47,42.22-23.93,51.43C319.54,302.71,260.82,276.54,270.49,194.13Z"/><g class="cls-38"><path class="cls-14" d="M343.47,251.28l-73-57.15s-13.85,57.54,7.25,94.32c0,0-.16-9,1.84-12.23,0,0,31.08,47.71,72.41,36.1A20.22,20.22,0,0,1,341.83,320s19,7.16,33.25,37.75C375.08,357.72,376.46,297.42,343.47,251.28Z"/></g><path class="cls-2" d="M301.06,390.72s16.43-13.33,23.33-41c6-10.5,18.43,6,20.18,13.5,0,0,1.5-8-1.75-13.25,0,0,18,11.52,23.5,51.13l-32.63-2.38-32.63-3.67Z"/><path class="cls-1" d="M293.74,145.79s22.55-2.11,37.91,30.81c0,0-35.57-21.16-49.27-23.78,0,0,7.13-1,18.13,2.37C307,157.19,304.57,147.72,293.74,145.79Z"/><g class="cls-39"><path class="cls-14" d="M309.66,164.39s8.83,3.67,10.5,1.17.72-6.59-2.93-9.63l4.43-1.4,5.83,3.7,8.33,8.21s3.83,5.63,2.83,9,8.17,10.17-5,5.83-12.17-3.83-14.83-5.5a71.09,71.09,0,0,1-6.83-5.33Z"/></g><path class="cls-2" d="M232.38,313.11l-.26-.78h0C208.4,317,189.69,335.9,189.53,335.9c11.42-32.75,36.91-51.38,36.76-51.38s-37.44,5.14-62.46,38C139.45,355.33,96,387.28,95.78,387.28c0,0,114.05-7.06,131.62-23.06C243.45,349.61,234.12,318.4,232.38,313.11Z"/><g class="cls-40"><path class="cls-10" d="M226.29,284.52c-.09,0-32.46,8.41-53.68,74.29.38,0,27.28-27.39,46.61-17,20.58,10.36,8.22,25.41,86,45.5q-15.81-22-29.52-44A697.45,697.45,0,0,1,226.29,284.52Z"/></g><path class="cls-5" d="M584.07,592.46l-.9-8.46L563.92,403.83l-.9-8.46L554.38,394A1729,1729,0,0,0,30.7,394l-8.64,1.35-.9,8.46L1.9,584,1,592.46,10.31,591q47.86-7.33,96-12.16l-.57,8.25-.58,8.42,9.42-.92a1875.09,1875.09,0,0,1,343.52-1.15l9.42.86-.54-8.41-.53-8.25q54.31,5.09,108.35,13.37Z"/><path class="cls-1" d="M163.08,539.65q-4.31-10.7-8.49-21.43-5.39.51-10.77,1.06-2,25.22-3.79,50.32,5.54-.61,11.1-1.17.85-12.42,1.73-24.87,2.48,8.68,5,17.33l7.92-.75q3.72-9.35,7.4-18.67-.77,12.51-1.52,25,5.54-.49,11.09-.93,1.36-24.95,2.81-50-5.86.44-11.7.92Q168.51,528,163.08,539.65Z"/><path class="cls-1" d="M204.12,514.33q-7.35,25.24-14.94,50.57V565q6.67-.5,13.35-.95.19-.65.46-1.92t.53-2.6l.48-2.42c.14-.72.24-1.2.31-1.45q5.17-.33,10.36-.63.39,2.69.63,4.78t.36,3.44q6.69-.38,13.39-.69v-.14q-5.53-24.46-10.68-48.94Q211.23,513.89,204.12,514.33Zm2.35,33,2.4-10.13q.5-2.17.91-4t.79-3.26q.81,5.59,1.44,9.87t1.09,7.1Z"/><path class="cls-1" d="M275.09,514.93a4.3,4.3,0,0,0-1.2-1.76,4.09,4.09,0,0,0-1.93-1,6.31,6.31,0,0,0-1.41-.26c-.51,0-1-.06-1.57,0l-1.21,0q-11,.18-22,.54l-1.61.05-1.13,0c-.54,0-1,.06-1.53.12a6.56,6.56,0,0,0-1.38.33,4.15,4.15,0,0,0-1.14.47,6.34,6.34,0,0,0-.91.68,3.92,3.92,0,0,0-.71.85c-.2.32-.38.64-.55,1a8.79,8.79,0,0,0-.48,2.58q-.55,18-1.08,35.95l0,1,0,1.14a8,8,0,0,0,.34,2.55,10,10,0,0,0,.51.94,3.19,3.19,0,0,0,.68.79,5.23,5.23,0,0,0,.89.6,3.74,3.74,0,0,0,1.15.38,6.36,6.36,0,0,0,1.4.23c.5,0,1,0,1.57,0l1.41-.05.5,0q12.38-.44,24.78-.66.83,0,1.62-.1a6.84,6.84,0,0,0,1.45-.31,5.64,5.64,0,0,0,2-1.1,5.15,5.15,0,0,0,1.6-3,10.71,10.71,0,0,0,.09-1.35q0-2.49,0-5,0-2.21,0-4.41l-3.37,0-2.47,0-4.36.08-2.63.05,0,3.06,0,2.49-1.48,0-1.07,0q-5.32.13-10.64.29l-1.07,0q.15-6.7.31-13.39.11-4.77.22-9.55l.1-4.28.07-3.06q7-.22,14-.36,0,1.39,0,2.78l0,2.71L266,527l2.44,0,4.23-.06,2.69,0q0-.53,0-1.07v-.64q0-.75,0-1.49l0-2.42q0-.39,0-.78t0-.85q0-.5,0-1t0-1.14a10.88,10.88,0,0,0-.07-1.35A4.45,4.45,0,0,0,275.09,514.93Z"/><path class="cls-1" d="M310.88,511.77q.11,9.61.21,19.22-8.69-.13-17.38-.14,0-9.61,0-19.21-6.18,0-12.35,0-.14,24.76-.27,49.52,6.35,0,12.69,0,0-10.28,0-20.56,8.74,0,17.47.15.11,10.28.22,20.57,6.39.1,12.77.26-.35-24.77-.72-49.56Q317.17,511.86,310.88,511.77Z"/><path class="cls-1" d="M329.76,512.17q.54,24.79,1.06,49.58l8.32.27,6,.23q-.74-24.81-1.52-49.63Q336.7,512.36,329.76,512.17Z"/><path class="cls-1" d="M378.89,514.37q.64,13.15,1.26,26.28-10.08-13.75-19.93-27.32-5.4-.26-10.79-.49.82,24.84,1.59,49.66,6.25.28,12.49.62-.49-13.14-1-26.28,10.09,13.64,20.4,27.47,5.56.38,11.12.8-1.3-24.93-2.68-49.91Q385.12,514.76,378.89,514.37Z"/><path class="cls-1" d="M411.19,556.88q-.38-6.29-.77-12.58,8.65.75,17.27,1.59-.29-4.18-.59-8.37-8.59-.83-17.2-1.57-.3-4.82-.61-9.64,9.34.78,18.65,1.68-.35-4.91-.71-9.83-15.46-1.47-31-2.62,1.44,25,2.81,50,15.91,1.27,31.73,2.89-.33-4.86-.67-9.73Q420.67,557.71,411.19,556.88Z"/><g class="cls-8"><path class="cls-41" d="M142.41,567.13c1.1-15.06,2.27-30.46,3.46-45.84l7.27-.72c2.57,6.59,5.22,13.28,7.89,19.9l4,.11q5.16-11,10.25-22l7.9-.62c-.9,15.57-1.76,30.86-2.56,45.53l-6.64.56q.67-11.22,1.36-22.45l-4.25-.94q-3.43,8.7-6.89,17.41l-4.77.45q-2.28-7.78-4.5-15.57l-4.31.45q-.81,11.52-1.6,23Z"/><path class="cls-42" d="M192.16,562.61c4.72-15.81,9.31-31.32,13.64-46.18q5.39-.33,10.79-.61c3.1,14.7,6.37,29.72,9.75,44.71l-8.72.45q-.07-.64-.16-1.38-.25-2.11-.64-4.83l-.29-2-2,.12q-5.19.3-10.37.63l-1.57.1-.41,1.52c-.07.27-.19.8-.35,1.6l-.48,2.42c-.18.88-.56,2.77-.58,2.86Zm16.28-33.25q-.4,1.49-.81,3.35t-.9,4c-.8,3.37-3.09,13-3.09,13l3-.18,6.62-.4,2.44-.14-.39-2.41q-.45-2.81-1.08-7.07t-1.44-9.86Z"/><path class="cls-43" d="M241,559.89l-.77,0a4.24,4.24,0,0,1-.92-.15l-.11,0-.11,0a1.57,1.57,0,0,1-.47-.15,3.08,3.08,0,0,1-.53-.36,1,1,0,0,1-.22-.25c-.12-.19-.23-.39-.33-.59a5.77,5.77,0,0,1-.2-1.69l.06-2.14q.53-18,1.08-35.94a6.57,6.57,0,0,1,.32-1.8c.12-.23.25-.45.38-.67a1.73,1.73,0,0,1,.32-.38,4.17,4.17,0,0,1,.6-.44,2,2,0,0,1,.53-.21l.1,0,.1,0a4.36,4.36,0,0,1,.92-.22c.41-.05.85-.09,1.32-.11l2.73-.09c7.27-.24,14.67-.42,22-.54l1.48,0c.37,0,.74,0,1.1,0a4.19,4.19,0,0,1,.92.17l.15,0a1.89,1.89,0,0,1,.91.49,2.24,2.24,0,0,1,.66.95,2.47,2.47,0,0,1,.19.69,8.83,8.83,0,0,1,.05,1.08l-.06,7.24-4.77.07-3.51.06.09-5.48-2.28,0q-7,.15-14.05.36l-2.08.06-.81,34.69,3.4-.1q5.3-.17,10.62-.29l4.67-.1.09-5.55,7.32-.13,1.12,0-.06,7.14a8.47,8.47,0,0,1-.07,1.08,2.3,2.3,0,0,1-.17.62,2.48,2.48,0,0,1-.68,1,3.43,3.43,0,0,1-1.23.66,4.82,4.82,0,0,1-1,.22q-.69.07-1.42.08c-8.17.14-16.52.36-24.82.66l-1.91.07Z"/><path class="cls-44" d="M322,559.31l-8.36-.17-.22-20.57-2.15,0c-5.86-.09-11.75-.14-17.5-.15h-2.21l0,20.56h-.47l-7.81,0q.12-22.56.24-45.12l7.74,0h.22l0,19.21h2.19c5.7,0,11.54.06,17.35.14l2.26,0L313.11,514l8.19.15Q321.64,536.74,322,559.31Z"/><path class="cls-45" d="M339.22,559.82l-6.24-.21q-.47-22.59-1-45.18,4.74.14,9.48.31.71,22.61,1.38,45.21Z"/><path class="cls-46" d="M391.7,562.73l-7.63-.55q-10-13.41-19.79-26.65l-4,1.39q.46,11.94.91,23.87l-8.06-.4q-.71-22.62-1.45-45.25l7.35.34c6.1,8.4,12.6,17.3,19.32,26.47l4-1.41q-.56-11.91-1.15-23.83l8,.54Q390.51,540,391.7,562.73Z"/><path class="cls-47" d="M428.4,565.94c-9.06-.91-18.21-1.74-27.26-2.47-.83-15.21-1.69-30.5-2.56-45.53,8.78.67,17.7,1.42,26.58,2.25l.39,5.37c-5.36-.51-10.75-1-16.08-1.44l-2.54-.21.88,14.08,1.89.16c5,.43,10.17.89,15.32,1.39q.14,2,.28,3.91c-5-.48-9.89-.93-14.7-1.34l-2.55-.22,1,17,1.89.17c5.63.49,11.35,1,17,1.6Z"/></g><path class="cls-23" d="M200,497.8h0q6.14-.38,12.28-.71.24-5.49.48-11,1.59-36.22,3.29-72.5.26-5.5.52-11-5.82.23-11.65.5h0q-23.14,1.07-46.25,2.71-5.81.41-11.62.86-.48,5.61-1,11.22-3.14,37-6.06,73.7-.44,5.57-.88,11.14,6.09-.61,12.19-1.18Q175.63,499.31,200,497.8Zm-32.09-74q12.55-.88,25.11-1.58-1.72,29-3.36,58l-2.7.18q-9.14.62-18.27,1.35l-2.84.23-2.09.17Q165.81,453,167.94,423.79Z"/><path class="cls-23" d="M251.69,401.52q-12.37.27-24.74.7-1.93,47.2-3.71,94.34,13.13-.61,26.28-1Q250.55,448.55,251.69,401.52Z"/><path class="cls-23" d="M311.73,495.06q0-9.44-.05-18.89-15.2-.19-30.41-.08.16-37.5.35-75-11.08.06-22.16.26-1,47-1.89,94Q284.64,494.72,311.73,495.06Z"/><path class="cls-23" d="M344.58,495.85q-1.42-47-2.94-94.13-12.37-.32-24.75-.48.72,47,1.39,93.93Q331.43,495.39,344.58,495.85Z"/><path class="cls-23" d="M378.28,497.4q-1.16-25-2.37-50,18.55,25.88,37.94,52.42,10.2.82,20.37,1.77-3.51-47.72-7.36-95.75-11.12-.79-22.26-1.46,1.71,25.15,3.35,50.25-18.77-26.31-36.69-51.94-9.63-.4-19.27-.71,1.75,47.15,3.37,94.25Q366.83,496.74,378.28,497.4Z"/><g class="cls-24"><path class="cls-48" d="M144,491.91c1.89-23.85,3.93-48.64,6.06-73.68l.67-7.83,8.21-.6c15.32-1.09,30.85-2,46.15-2.71l7.26-.32-.31,6.64c-1.14,24.47-2.25,48.87-3.29,72.51l-.32,7.37-8.69.51c-16.05,1-32.47,2.26-48.79,3.77l-7.46.71Zm48.79-73.7c-8.41.47-16.88,1-25.17,1.59l-3.46.24L164,423.5c-1.44,19.67-2.83,39.29-4.15,58.31l-.32,4.64,9.56-.78c6-.48,12.18-.93,18.23-1.34l6.22-.42.2-3.53c1.06-18.83,2.19-38.33,3.35-57.94l.27-4.48Z"/><path class="cls-49" d="M227.4,492.36c1.06-27.95,2.2-56.93,3.39-86.28,5.6-.18,11.22-.34,16.8-.48-.7,28.91-1.36,57.83-2,86.07C239.55,491.87,233.46,492.1,227.4,492.36Z"/><path class="cls-50" d="M261.66,491.26c.54-28,1.12-56.9,1.72-86,4.74-.07,9.5-.13,14.22-.17q-.18,35.48-.33,70.95l0,4,4,0q5.64,0,11.28,0c5,0,10.08,0,15.11.07l0,10.88c-5-.05-10.12-.08-15.15-.08C282.33,490.94,271.95,491,261.66,491.26Z"/><path class="cls-51" d="M340.45,491.71c-6.09-.19-12.19-.35-18.23-.47q-.61-43-1.27-85.94c5.58.08,11.21.19,16.81.33C338.69,434.62,339.6,463.53,340.45,491.71Z"/><path class="cls-52" d="M429.89,497.2c-4.66-.42-9.31-.82-13.88-1.19-13.89-19-25.95-35.72-36.84-50.92l-7.25,2.52q1.1,22.79,2.16,45.55c-5-.27-9.93-.51-14.84-.73-1-27.94-2-56.92-3.08-86.27,4.32.15,8.66.31,13,.48C379.85,422,391.5,438.48,404.7,457l7.25-2.58c-1-15-2-30.39-3-45.72,4.74.29,9.51.61,14.24.94C425.52,439.32,427.78,468.74,429.89,497.2Z"/></g><path class="cls-23" d="M47.3,417.06Q38.1,491,30.72,562.51,52,573.19,73.86,584.36q-5.93-13.42-11.7-26.8,22.08-3.32,44.45-6.15,9.09-1.14,18.23-2.18.65-8.29,1.32-16.6,1.41-17.53,2.88-35.11a51.28,51.28,0,0,0-.12-7.65q-.36-4.8-3-6.75A14.81,14.81,0,0,0,120,479.6q-3.47-1.14-7.42-2.73,3-2,6-4.2t7.61-5.56a13.59,13.59,0,0,0,5.39-8.63q.75-4.93,1.09-8.81,1.09-12.46,2.21-24.94.77-8.6,1.56-17.21-8.56.71-17.11,1.5Q83.25,412.35,47.3,417.06Zm45,109q-12.73,1.66-25.38,3.5,1.82-17.88,3.74-35.87l4.78-.65L83.45,492l8-1,4.59-.57Q94.14,508.27,92.35,526.06Zm6-59.54q-12.55,1.48-25,3.12,1.55-14.12,3.15-28.31,12.36-1.53,24.76-2.88Q99.78,452.51,98.37,466.53Z"/><path class="cls-53" d="M65.67,575.69C55.44,570.48,45.16,565.28,35,560.18c4.54-44.09,9.89-91,15.91-139.54,22.79-2.95,45.93-5.51,68.83-7.62,4.14-.38,8.27-.75,12.33-1.09q-.57,6.23-1.12,12.46-1.12,12.49-2.22,25c-.22,2.48-.57,5.36-1.06,8.56a9.63,9.63,0,0,1-3.85,6c-3,2.17-5.58,4-7.59,5.54s-3.85,2.79-5.79,4.06l.7,7.06c2.65,1.07,5.23,2,7.66,2.82a10.75,10.75,0,0,1,4.31,2.56l.21.21.24.17c1,.71,1.29,2.47,1.39,3.82a47.74,47.74,0,0,1,.12,7q-1.47,17.59-2.88,35.12-.54,6.67-1.06,13.32c-5,.58-10,1.18-15,1.81-14.1,1.76-28.67,3.78-44.55,6.17l-5.14.77,2.06,4.77C61,565,63.38,570.46,65.67,575.69ZM90.91,487l-8,1-8,1.06-7.89,1.08-.33,3.12c-1.29,12.09-2.55,24.17-3.75,35.89l-.52,5.1,5.07-.74c8.54-1.24,17.06-2.41,25.32-3.5l3.15-.41.32-3.16c1.17-11.71,2.4-23.71,3.65-35.66l.52-5Zm9.88-52.51c-8.25.9-16.6,1.88-24.81,2.89l-3.13.39-.35,3.14q-1.6,14.2-3.15,28.33l-.56,5.07,5.05-.67c8.32-1.1,16.73-2.14,25-3.12l3.19-.38.32-3.2q1.41-14,2.86-28.06l.51-4.93Z"/><path class="cls-23" d="M556.14,562.84l.11,0v-.07h0q-.88-8.29-1.79-16.62-2-18-4-36.08l-.22,0q-1.35-11.77-2.76-23.6-24.5-3.77-49.26-6.91,1.21,11.66,2.38,23.28,8,1.06,16,2.18,1.31,12.39,2.58,24.72-18.91-2.76-38-5.14-3.92-43.32-8.25-87.09,18.4,1.9,36.74,4.18.91,8,1.81,16.05,16.73,2.16,33.38,4.61-2.74-22.43-5.64-45.08-8.51-1.12-17-2.17l-1.21-.15q-33.27-4.06-66.69-6.93-8.56-.74-17.12-1.39.71,8.27,1.4,16.52,4.58,54.43,8.69,108.42.62,8.19,1.23,16.36,9.16,1,18.28,2.06,29.3,3.46,58.13,7.88Q519,571.2,513.13,584.59,534.89,573.46,556.14,562.84Z"/><path class="cls-54" d="M521.3,575.93c2.27-5.2,4.64-10.66,7.16-16.49l2.05-4.76-5.13-.78c-20.12-3-39.72-5.7-58.26-7.89-5-.59-10.06-1.17-15-1.7q-.49-6.52-1-13c-2.65-34.87-5.57-71.35-8.7-108.45q-.5-5.91-1-11.83c4.11.33,8.26.67,12.39,1,22.15,1.9,44.54,4.23,66.54,6.92l1.21.15c4.63.57,9.31,1.16,13.94,1.76,1.59,12.45,3.14,24.79,4.61,36.8-8.41-1.21-16.83-2.37-25.15-3.46q-.72-6.46-1.46-12.94l-.36-3.13L510,437.7c-12.22-1.52-24.61-2.93-36.82-4.19l-4.87-.5.48,4.88c2.94,29.72,5.71,59,8.25,87.06l.29,3.21,3.2.4c12.36,1.53,25.12,3.26,37.93,5.12l5.08.74-.52-5.11q-1.27-12.34-2.58-24.73l-.33-3.1-3.09-.44c-4.25-.6-8.56-1.19-12.85-1.77q-.76-7.55-1.54-15.12c13.52,1.75,27.32,3.7,41.15,5.8q1.22,10.31,2.4,20.56l.35,3,.22,0c1.28,11.19,2.52,22.29,3.69,33q.76,6.94,1.5,13.85C541.76,565.57,531.49,570.75,521.3,575.93Z"/><path class="cls-32" d="M142.41,588.94c98.08-7.22,195.66-7.5,292.66,0"/><polygon class="cls-5" points="584.07 592.46 518.51 626.94 524.93 589.44 534.69 580.27 546.93 576.87 564.93 576.87 584.07 592.46"/><polygon class="cls-5" points="1 592.46 66.56 626.94 60.14 589.44 50.39 580.27 38.14 576.87 20.14 576.87 1 592.46"/><path class="cls-5" d="M137,302.72s-25.9,41.65-52,54.67L88.19,373l15.25,4.06s14.82-22.3,27-32.72a125.33,125.33,0,0,0,19.6-21Z"/><path class="cls-1" d="M543.09,202c13.22,2.33,23.28,9.24,20.1,20s-16.07,24.48-34.44,13.6S477.82,229,477.82,229,531.84,200,543.09,202Z"/><g class="cls-55"><path class="cls-14" d="M477.82,229s44.24-22.67,62.31-13.33,25.72-3.36,13.29-10.56-27.49-7.21-27.49-7.21l-21.47,7.86-21.64,14.72Z"/></g><path class="cls-1" d="M28.78,289.35c-3.91,12.84-2.3,24.94,8.77,27s29.1-3.24,27.71-24.55S82.4,243.38,82.4,243.38,32.1,278.43,28.78,289.35Z"/><g class="cls-56"><path class="cls-14" d="M82.4,243.38s-40.25,29.18-40.09,49.53S27.66,314.32,26.87,300s6-27.78,6-27.78l16.73-15.58L72.55,244Z"/></g><path class="cls-1" d="M526.43,253.52c3.8,5.15,5,10.85.35,13.53s-13.6,3.17-16.37-6.63-15.4-19-15.4-19S523.2,249.13,526.43,253.52Z"/><g class="cls-57"><path class="cls-14" d="M495,241.37s22.74,6.72,25.9,15.89,10,7.3,8.06.72a29.66,29.66,0,0,0-7.12-11.53l-10-4.35-12.32-2Z"/></g><path class="cls-1" d="M34.12,719.3"/></g></g></svg>