<svg xmlns="http://www.w3.org/2000/svg" xmlns:xlink="http://www.w3.org/1999/xlink" viewBox="0 0 600.14 333.22"><defs><style>.cls-1{fill:#fd0a04;}.cls-2{fill:#f9110c;}.cls-3{fill:#06121c;}.cls-4{opacity:0.25;}.cls-10,.cls-11,.cls-13,.cls-19,.cls-20,.cls-5,.cls-6,.cls-7,.cls-8,.cls-9{opacity:0.5;}.cls-5{fill:url(#linear-gradient);}.cls-6{fill:url(#linear-gradient-2);}.cls-7{fill:url(#linear-gradient-3);}.cls-8{fill:url(#linear-gradient-4);}.cls-9{fill:url(#linear-gradient-5);}.cls-10{fill:url(#linear-gradient-6);}.cls-11{fill:url(#linear-gradient-7);}.cls-12{fill:#fff;}.cls-14{fill:url(#linear-gradient-8);}.cls-15{fill:url(#linear-gradient-9);}.cls-16{fill:url(#linear-gradient-10);}.cls-17{fill:url(#linear-gradient-11);}.cls-18{fill:url(#linear-gradient-12);}.cls-19{fill:url(#linear-gradient-13);}.cls-20{fill:url(#linear-gradient-14);}.cls-21{fill:none;stroke:#a80000;stroke-miterlimit:10;stroke-width:8.81px;}.cls-22{fill:#a80000;}</style><linearGradient id="linear-gradient" x1="170.35" y1="201.05" x2="170.35" y2="151.9" gradientUnits="userSpaceOnUse"><stop offset="0.5"/><stop offset="1" stop-opacity="0.25"/></linearGradient><linearGradient id="linear-gradient-2" x1="216.78" y1="196.54" x2="216.78" y2="149.74" xlink:href="#linear-gradient"/><linearGradient id="linear-gradient-3" x1="262.84" y1="193.81" x2="262.84" y2="147.93" xlink:href="#linear-gradient"/><linearGradient id="linear-gradient-4" x1="310.15" y1="193.23" x2="310.15" y2="147.76" xlink:href="#linear-gradient"/><linearGradient id="linear-gradient-5" x1="344.98" y1="193.88" x2="344.98" y2="148.36" xlink:href="#linear-gradient"/><linearGradient id="linear-gradient-6" x1="379.24" y1="196.65" x2="379.24" y2="149.07" xlink:href="#linear-gradient"/><linearGradient id="linear-gradient-7" x1="421.03" y1="199.86" x2="421.03" y2="151.86" xlink:href="#linear-gradient"/><linearGradient id="linear-gradient-8" x1="185.5" y1="40.7" x2="185.5" y2="132.21" gradientUnits="userSpaceOnUse"><stop offset="0.5" stop-color="#fff"/><stop offset="1" stop-opacity="0.25"/></linearGradient><linearGradient id="linear-gradient-9" x1="245.03" y1="39.53" x2="245.03" y2="126.28" xlink:href="#linear-gradient-8"/><linearGradient id="linear-gradient-10" x1="292.22" y1="39.06" x2="292.22" y2="125.18" xlink:href="#linear-gradient-8"/><linearGradient id="linear-gradient-11" x1="338.23" y1="39.21" x2="338.23" y2="125.63" xlink:href="#linear-gradient-8"/><linearGradient id="linear-gradient-12" x1="400.55" y1="40.08" x2="400.55" y2="131.12" xlink:href="#linear-gradient-8"/><linearGradient id="linear-gradient-13" x1="91.05" y1="45.84" x2="91.05" y2="209.61" xlink:href="#linear-gradient-8"/><linearGradient id="linear-gradient-14" x1="504.23" y1="44.9" x2="504.23" y2="209.85" xlink:href="#linear-gradient-8"/></defs><title>Ресурс 1</title><g id="Слой_2" data-name="Слой 2"><g id="Capa_1" data-name="Capa 1"><path class="cls-1" d="M300.39,329.08a820.78,820.78,0,0,1-112.63-27.15l-2.55-.82c-8.88-2.89-17.53-5.92-25.73-9q-3.87-1.45-7.73-3a429.91,429.91,0,0,1-39.31-17.65l-1.65-.85a289.31,289.31,0,0,1-25.23-14.76q-1.45-1-2.88-1.93c-2.22-1.51-4.4-3.05-6.5-4.6l3.22,18.82L4.27,228.64,25.94,25.82l3-.48L37.62,24a1733,1733,0,0,1,524.89,0l8.66,1.35,3,.48,21.68,202.83-75.13,39.52,3-17.29c-1.43,1-2.9,2.05-4.39,3.06q-1.43,1-2.88,1.93a289.24,289.24,0,0,1-25.23,14.76l-1.65.85a429.91,429.91,0,0,1-39.31,17.65q-3.86,1.52-7.73,3c-8.19,3.08-16.85,6.1-25.73,9l-2.55.82A820.72,820.72,0,0,1,301.6,329.08l-.6.09Z"/><path class="cls-2" d="M300.07,8A1729,1729,0,0,1,561.91,27.94l8.64,1.35.9,8.46L590.7,217.91l.9,8.46L526,260.85l3.29-19.24-2,1.56q-1.48,1.14-3,2.27-3.56,2.65-7.31,5.2-1.4,1-2.83,1.9a284.24,284.24,0,0,1-24.88,14.55l-1.63.84a425.24,425.24,0,0,1-38.95,17.48q-3.83,1.51-7.67,2.95c-8.54,3.21-17.1,6.18-25.56,8.94l-2.53.82a808.78,808.78,0,0,1-112,27,808.78,808.78,0,0,1-112-27l-2.53-.82c-8.46-2.75-17-5.73-25.56-8.94q-3.84-1.44-7.67-2.95a425.24,425.24,0,0,1-38.95-17.48l-1.63-.84a284.22,284.22,0,0,1-24.88-14.55q-1.43-.94-2.83-1.9-3.75-2.55-7.31-5.2-1.51-1.13-3-2.27-2.1-1.63-4.13-3.29l3.59,21L8.53,226.37l.9-8.46L28.69,37.75l.9-8.46,8.64-1.35A1729,1729,0,0,1,300.07,8m0-8A1742.6,1742.6,0,0,0,37,20l-8.68,1.35-6.05,1-.65,6.09-.52,4.89-.38,3.56L14.56,94.65,1.48,217.06,1,221.29l-.45,4.23L0,230.92l4.81,2.53,65.56,34.48,14.34,7.55L82,259.5l-.23-1.37,1.62,1.08a293.21,293.21,0,0,0,25.58,15l1.67.86a434,434,0,0,0,39.68,17.82c2.55,1,5.17,2,7.79,3,8.26,3.1,17,6.15,25.9,9.05l2.56.83A825.32,825.32,0,0,0,299.79,333l1.2.18,1.2-.18a825.32,825.32,0,0,0,113.25-27.3l2.56-.83c8.92-2.9,17.63-6,25.9-9.05,2.62-1,5.24-2,7.79-3A434,434,0,0,0,491.38,275l1.67-.86c9-4.72,17.48-9.64,25.12-14.65l-2.73,16,14.34-7.55,65.56-34.48,4.81-2.53-.58-5.4-.45-4.23-.45-4.23-6.17-57.75L579.4,36.9,579,32.67l-.45-4.23-.65-6.09-6.05-1L563.12,20A1742.61,1742.61,0,0,0,300.07,0Z"/><polygon class="cls-3" points="300.07 312.02 114.8 264.59 79.12 217.85 90.34 141.88 91.43 41.45 127.07 84.78 235.08 92.1 375.11 93.6 487.19 82.12 503.15 93.6 526.05 123.6 503.15 232.68 492.1 260.09 392.58 300.59 300.07 312.02"/><path class="cls-3" d="M106.53,147.44l388.93,15.29v41.92c-23.84,18-62.17,35.39-110.52,49.83a789.56,789.56,0,0,1-84,20,784.17,784.17,0,0,1-82.75-19.6c-48.93-14.52-87.67-32-111.7-50.18V147.44m-50-52v131.5C123.83,298.21,301,325.14,301,325.14s177.16-26.92,244.47-98.21V114.66L56.53,95.43Z"/><path class="cls-3" d="M591.61,226.38l-.9-8.46L571.45,37.76l-.9-8.46L561.91,28A1729,1729,0,0,0,38.23,28L29.59,29.3l-.9,8.46L9.44,217.92l-.9,8.46,9.31-1.45q47.86-7.33,96-12.16l-.57,8.25-.58,8.42,9.42-.92a1875.09,1875.09,0,0,1,343.52-1.15l9.42.86-.54-8.41-.53-8.25q54.31,5.09,108.35,13.37Z"/><path class="cls-1" d="M170.61,173.57q-4.31-10.7-8.49-21.43-5.39.51-10.77,1.06-2,25.22-3.79,50.32,5.54-.61,11.1-1.17.85-12.42,1.73-24.87,2.48,8.68,5,17.33l7.92-.75q3.72-9.35,7.4-18.67-.77,12.51-1.52,25,5.54-.49,11.09-.93,1.36-24.95,2.81-50-5.86.44-11.7.92Q176,162,170.61,173.57Z"/><path class="cls-1" d="M211.65,148.25q-7.35,25.24-14.94,50.57V199q6.67-.5,13.35-.95.19-.65.46-1.92t.53-2.6l.48-2.42c.14-.72.24-1.2.31-1.45q5.17-.33,10.36-.63.39,2.69.63,4.78t.36,3.44q6.69-.38,13.39-.69v-.14q-5.53-24.46-10.68-48.94Q218.76,147.81,211.65,148.25Zm2.35,33,2.4-10.13q.5-2.17.91-4t.79-3.26q.81,5.59,1.44,9.87t1.09,7.1Z"/><path class="cls-1" d="M282.62,148.85a4.3,4.3,0,0,0-1.2-1.76,4.09,4.09,0,0,0-1.93-1,6.31,6.31,0,0,0-1.41-.26c-.51,0-1-.06-1.57,0l-1.21,0q-11,.18-22,.54l-1.61.05-1.13,0c-.54,0-1,.06-1.53.12a6.56,6.56,0,0,0-1.38.33,4.15,4.15,0,0,0-1.14.47,6.34,6.34,0,0,0-.91.68,3.92,3.92,0,0,0-.71.85c-.2.32-.38.64-.55,1a8.79,8.79,0,0,0-.48,2.58q-.55,18-1.08,35.95l0,1,0,1.14A8,8,0,0,0,243,193a10,10,0,0,0,.51.94,3.19,3.19,0,0,0,.68.79,5.23,5.23,0,0,0,.89.6,3.74,3.74,0,0,0,1.15.38,6.36,6.36,0,0,0,1.4.23c.5,0,1,0,1.57,0l1.41-.05.5,0q12.38-.44,24.78-.66.83,0,1.62-.1a6.84,6.84,0,0,0,1.45-.31,5.64,5.64,0,0,0,2-1.1,5.15,5.15,0,0,0,1.6-3,10.71,10.71,0,0,0,.09-1.35q0-2.49,0-5,0-2.21,0-4.41l-3.37,0-2.47,0-4.36.08-2.63.05,0,3.06,0,2.49-1.48,0-1.07,0q-5.32.13-10.64.29l-1.07,0q.15-6.7.31-13.39.11-4.77.22-9.55l.1-4.28.07-3.06q7-.22,14-.36,0,1.39,0,2.78l0,2.71,3.34-.07,2.44,0,4.23-.06,2.69,0q0-.53,0-1.07v-.64q0-.75,0-1.49l0-2.42q0-.39,0-.78t0-.85q0-.5,0-1t0-1.14a10.88,10.88,0,0,0-.07-1.35A4.45,4.45,0,0,0,282.62,148.85Z"/><path class="cls-1" d="M318.41,145.7q.11,9.61.21,19.22-8.69-.13-17.38-.14,0-9.61,0-19.21-6.18,0-12.35,0-.14,24.76-.27,49.52,6.35,0,12.69,0,0-10.28,0-20.56,8.74,0,17.47.15.11,10.28.22,20.57,6.39.1,12.77.26-.35-24.77-.72-49.56Q324.71,145.79,318.41,145.7Z"/><path class="cls-1" d="M337.29,146.09q.54,24.79,1.06,49.58l8.32.27,6,.23q-.74-24.81-1.52-49.63Q344.23,146.28,337.29,146.09Z"/><path class="cls-1" d="M386.43,148.3q.64,13.15,1.26,26.28-10.08-13.75-19.93-27.32-5.4-.26-10.79-.49.82,24.84,1.59,49.66,6.25.28,12.49.62-.49-13.14-1-26.28,10.09,13.64,20.4,27.47,5.56.38,11.12.8-1.3-24.93-2.68-49.91Q392.66,148.68,386.43,148.3Z"/><path class="cls-1" d="M418.72,190.81q-.38-6.29-.77-12.58,8.65.75,17.27,1.59-.29-4.18-.59-8.37-8.59-.83-17.2-1.57-.3-4.82-.61-9.64,9.34.78,18.65,1.68-.35-4.91-.71-9.83-15.46-1.47-31-2.62,1.44,25,2.81,50,15.91,1.27,31.73,2.89-.33-4.86-.67-9.73Q428.2,191.64,418.72,190.81Z"/><g class="cls-4"><path class="cls-5" d="M149.94,201.05c1.1-15.06,2.27-30.46,3.46-45.84l7.27-.72c2.57,6.59,5.22,13.28,7.89,19.9l4,.11q5.16-11,10.25-22l7.9-.62c-.9,15.57-1.76,30.86-2.56,45.53l-6.64.56q.67-11.22,1.36-22.45l-4.25-.94q-3.43,8.7-6.89,17.41l-4.77.45q-2.28-7.78-4.5-15.57l-4.31.45q-.81,11.52-1.6,23Z"/><path class="cls-6" d="M199.69,196.54c4.72-15.81,9.31-31.32,13.64-46.18q5.39-.33,10.79-.61c3.1,14.7,6.37,29.72,9.75,44.71l-8.72.45q-.07-.64-.16-1.38-.25-2.11-.64-4.83l-.29-2-2,.12q-5.19.3-10.37.63l-1.57.1-.41,1.52c-.07.27-.19.8-.35,1.6l-.48,2.42c-.18.88-.56,2.77-.58,2.86ZM216,163.29q-.4,1.49-.81,3.35t-.9,4c-.8,3.37-3.09,13-3.09,13l3-.18,6.62-.4,2.44-.14-.39-2.41q-.45-2.81-1.08-7.07t-1.44-9.86Z"/><path class="cls-7" d="M248.55,193.81l-.77,0a4.24,4.24,0,0,1-.92-.15l-.11,0-.11,0a1.57,1.57,0,0,1-.47-.15,3.08,3.08,0,0,1-.53-.36,1,1,0,0,1-.22-.25c-.12-.19-.23-.39-.33-.59a5.77,5.77,0,0,1-.2-1.69l.06-2.14q.53-18,1.08-35.94a6.57,6.57,0,0,1,.32-1.8c.12-.23.25-.45.38-.67a1.73,1.73,0,0,1,.32-.38,4.17,4.17,0,0,1,.6-.44,2,2,0,0,1,.53-.21l.1,0,.1,0a4.36,4.36,0,0,1,.92-.22c.41-.05.85-.09,1.32-.11l2.73-.09c7.27-.24,14.67-.42,22-.54l1.48,0c.37,0,.74,0,1.1,0a4.19,4.19,0,0,1,.92.17l.15,0a1.89,1.89,0,0,1,.91.49,2.24,2.24,0,0,1,.66.95,2.47,2.47,0,0,1,.19.69,8.83,8.83,0,0,1,.05,1.08l-.06,7.24-4.77.07-3.51.06.09-5.48-2.28,0q-7,.15-14.05.36l-2.08.06-.81,34.69,3.4-.1q5.3-.17,10.62-.29l4.67-.1.09-5.55,7.32-.13,1.12,0-.06,7.14a8.47,8.47,0,0,1-.07,1.08,2.3,2.3,0,0,1-.17.62,2.48,2.48,0,0,1-.68,1,3.43,3.43,0,0,1-1.23.66,4.82,4.82,0,0,1-1,.22q-.69.07-1.42.08c-8.17.14-16.52.36-24.82.66l-1.91.07Z"/><path class="cls-8" d="M329.49,193.23l-8.36-.17-.22-20.57-2.15,0c-5.86-.09-11.75-.14-17.5-.15h-2.21l0,20.56h-.47l-7.81,0q.12-22.56.24-45.12l7.74,0H299L299,167h2.19c5.7,0,11.54.06,17.35.14l2.26,0-.21-19.21,8.19.15Q329.17,170.66,329.49,193.23Z"/><path class="cls-9" d="M346.75,193.74l-6.24-.21q-.47-22.59-1-45.18,4.74.14,9.48.31.71,22.61,1.38,45.21Z"/><path class="cls-10" d="M399.23,196.65l-7.63-.55q-10-13.41-19.79-26.65l-4,1.39q.46,11.94.91,23.87l-8.06-.4q-.71-22.62-1.45-45.25l7.35.34c6.1,8.4,12.6,17.3,19.32,26.47l4-1.41q-.56-11.91-1.15-23.83l8,.54Q398,173.94,399.23,196.65Z"/><path class="cls-11" d="M435.94,199.86c-9.06-.91-18.21-1.74-27.26-2.47-.83-15.21-1.69-30.5-2.56-45.53,8.78.67,17.7,1.42,26.58,2.25l.39,5.37c-5.36-.51-10.75-1-16.08-1.44l-2.54-.21.88,14.08,1.89.16c5,.43,10.17.89,15.32,1.39q.14,2,.28,3.91c-5-.48-9.89-.93-14.7-1.34l-2.55-.22,1,17,1.89.17c5.63.49,11.35,1,17,1.6Z"/></g><path class="cls-12" d="M207.56,131.73h0q6.14-.38,12.28-.71.24-5.49.48-11,1.59-36.22,3.29-72.5.26-5.5.52-11-5.82.23-11.65.5h0q-23.14,1.07-46.25,2.71-5.81.41-11.62.86-.48,5.61-1,11.22-3.14,37-6.06,73.7-.44,5.57-.88,11.14,6.09-.61,12.19-1.18Q183.16,133.24,207.56,131.73Zm-32.09-74q12.55-.88,25.11-1.58-1.72,29-3.36,58l-2.7.18q-9.14.62-18.27,1.35l-2.84.23-2.09.17Q173.34,86.91,175.48,57.71Z"/><path class="cls-12" d="M259.22,35.44q-12.37.27-24.74.7-1.93,47.2-3.71,94.34,13.13-.61,26.28-1Q258.09,82.48,259.22,35.44Z"/><path class="cls-12" d="M319.26,129q0-9.44-.05-18.89-15.2-.19-30.41-.08.16-37.5.35-75-11.08.06-22.16.26-1,47-1.89,94Q292.17,128.64,319.26,129Z"/><path class="cls-12" d="M352.11,129.77q-1.42-47-2.94-94.13-12.37-.32-24.75-.48.72,47,1.39,93.93Q339,129.31,352.11,129.77Z"/><path class="cls-12" d="M385.81,131.32q-1.16-25-2.37-50,18.55,25.88,37.94,52.42,10.2.82,20.37,1.77-3.51-47.72-7.36-95.75-11.12-.79-22.26-1.46,1.71,25.15,3.35,50.25Q396.71,62.27,378.8,36.64q-9.63-.4-19.27-.71,1.75,47.15,3.37,94.25Q374.36,130.67,385.81,131.32Z"/><g class="cls-13"><path class="cls-14" d="M151.57,125.84c1.89-23.85,3.93-48.64,6.06-73.68l.67-7.83,8.21-.6c15.32-1.09,30.85-2,46.15-2.71l7.26-.32-.31,6.64c-1.14,24.47-2.25,48.87-3.29,72.51l-.32,7.37-8.69.51c-16.05,1-32.47,2.26-48.79,3.77l-7.46.71Zm48.79-73.7c-8.41.47-16.88,1-25.17,1.59l-3.46.24-.25,3.46c-1.44,19.67-2.83,39.29-4.15,58.31l-.32,4.64,9.56-.78c6-.48,12.18-.93,18.23-1.34l6.22-.42.2-3.53c1.06-18.83,2.19-38.33,3.35-57.94l.27-4.48Z"/><path class="cls-15" d="M234.93,126.28c1.06-27.95,2.2-56.93,3.39-86.28,5.6-.18,11.22-.34,16.8-.48-.7,28.91-1.36,57.83-2,86.07C247.09,125.79,241,126,234.93,126.28Z"/><path class="cls-16" d="M269.19,125.18c.54-28,1.12-56.9,1.72-86,4.74-.07,9.5-.13,14.22-.17Q285,74.53,284.8,110l0,4,4,0q5.64,0,11.28,0c5,0,10.08,0,15.11.07l0,10.88c-5-.05-10.12-.08-15.15-.08C289.86,124.86,279.48,125,269.19,125.18Z"/><path class="cls-17" d="M348,125.63c-6.09-.19-12.19-.35-18.23-.47q-.61-43-1.27-85.94c5.58.08,11.21.19,16.81.33C346.22,68.54,347.13,97.46,348,125.63Z"/><path class="cls-18" d="M437.42,131.12c-4.66-.42-9.31-.82-13.88-1.19-13.89-19-25.95-35.72-36.84-50.92l-7.25,2.52q1.1,22.79,2.16,45.55c-5-.27-9.93-.51-14.84-.73-1-27.94-2-56.92-3.08-86.27,4.32.15,8.66.31,13,.48C387.38,55.92,399,72.41,412.23,90.9l7.25-2.58c-1-15-2-30.39-3-45.72,4.74.29,9.51.61,14.24.94C433.05,73.24,435.32,102.66,437.42,131.12Z"/></g><path class="cls-12" d="M54.84,51q-9.21,73.94-16.58,145.45,21.31,10.67,43.14,21.85-5.93-13.42-11.7-26.8,22.08-3.32,44.45-6.15,9.09-1.14,18.23-2.18.65-8.29,1.32-16.6,1.41-17.53,2.88-35.11a51.28,51.28,0,0,0-.12-7.65q-.36-4.8-3-6.75a14.81,14.81,0,0,0-5.87-3.52q-3.47-1.14-7.42-2.73,3-2,6-4.2t7.61-5.56a13.59,13.59,0,0,0,5.39-8.63q.75-4.93,1.09-8.81,1.09-12.46,2.21-24.94.77-8.6,1.56-17.21-8.56.71-17.11,1.5Q90.78,46.28,54.84,51Zm45,109q-12.73,1.66-25.38,3.5,1.82-17.88,3.74-35.87L83,127,91,125.91l8-1,4.59-.57Q101.67,142.19,99.89,160Zm6-59.54q-12.55,1.48-25,3.12Q82.4,89.45,84,75.26q12.36-1.53,24.76-2.88Q107.31,86.44,105.9,100.45Z"/><path class="cls-19" d="M73.2,209.61C63,204.4,52.7,199.21,42.51,194.1c4.54-44.09,9.89-91,15.91-139.54,22.79-2.95,45.93-5.51,68.83-7.62,4.14-.38,8.27-.75,12.33-1.09q-.57,6.23-1.12,12.46-1.12,12.49-2.22,25c-.22,2.48-.57,5.36-1.06,8.56a9.63,9.63,0,0,1-3.85,6c-3,2.17-5.58,4-7.59,5.54s-3.85,2.79-5.79,4.06l.7,7.06c2.65,1.07,5.23,2,7.66,2.82a10.75,10.75,0,0,1,4.31,2.56l.21.21.24.17c1,.71,1.29,2.47,1.39,3.82a47.74,47.74,0,0,1,.12,7q-1.47,17.59-2.88,35.12-.54,6.67-1.06,13.32c-5,.58-10,1.18-15,1.81-14.1,1.76-28.67,3.78-44.55,6.17L64,188.3,66,193.07C68.53,198.9,70.91,204.38,73.2,209.61Zm25.24-88.7-8,1-8,1.06-7.89,1.08-.33,3.12c-1.29,12.09-2.55,24.17-3.75,35.89l-.52,5.1,5.07-.74c8.54-1.24,17.06-2.41,25.32-3.5l3.15-.41.32-3.16c1.17-11.71,2.4-23.71,3.65-35.66l.52-5Zm9.88-52.51c-8.25.9-16.6,1.88-24.81,2.89l-3.13.39L80,74.81q-1.6,14.2-3.15,28.33l-.56,5.07,5.05-.67c8.32-1.1,16.73-2.14,25-3.12l3.19-.38.32-3.2q1.41-14,2.86-28.06l.51-4.93Z"/><path class="cls-12" d="M563.67,196.76l.11,0v-.07h0q-.88-8.29-1.79-16.62-2-18-4-36.08l-.22,0q-1.35-11.77-2.76-23.6-24.5-3.77-49.26-6.91,1.21,11.66,2.38,23.28,8,1.06,16,2.18,1.31,12.39,2.58,24.72-18.91-2.76-38-5.14-3.92-43.32-8.25-87.09,18.4,1.9,36.74,4.18.91,8,1.81,16.05,16.73,2.16,33.38,4.61-2.74-22.43-5.64-45.08-8.51-1.12-17-2.17l-1.21-.15q-33.27-4.06-66.69-6.93-8.56-.74-17.12-1.39.71,8.27,1.4,16.52,4.58,54.43,8.69,108.42.62,8.19,1.23,16.36,9.16,1,18.28,2.06,29.3,3.46,58.13,7.88-5.76,13.35-11.66,26.74Q542.43,207.38,563.67,196.76Z"/><path class="cls-20" d="M528.83,209.85c2.27-5.2,4.64-10.66,7.16-16.49L538,188.6l-5.13-.78c-20.12-3-39.72-5.7-58.26-7.89-5-.59-10.06-1.17-15-1.7q-.49-6.52-1-13C456,130.31,453.09,93.82,450,56.73q-.5-5.91-1-11.83c4.11.33,8.26.67,12.39,1,22.15,1.9,44.54,4.23,66.54,6.92l1.21.15c4.63.57,9.31,1.16,13.94,1.76,1.59,12.45,3.14,24.79,4.61,36.8-8.41-1.21-16.83-2.37-25.15-3.46q-.72-6.46-1.46-12.94L520.71,72l-3.13-.39c-12.22-1.52-24.61-2.93-36.82-4.19l-4.87-.5.48,4.88c2.94,29.72,5.71,59,8.25,87.06l.29,3.21,3.2.4c12.36,1.53,25.12,3.26,37.93,5.12l5.08.74-.52-5.11q-1.27-12.34-2.58-24.73l-.33-3.1L524.6,135c-4.25-.6-8.56-1.19-12.85-1.77q-.76-7.55-1.54-15.12c13.52,1.75,27.32,3.7,41.15,5.8q1.22,10.31,2.4,20.56l.35,3,.22,0c1.28,11.19,2.52,22.29,3.69,33q.76,6.94,1.5,13.85C549.29,199.49,539,204.67,528.83,209.85Z"/><path class="cls-21" d="M149.94,222.86c98.08-7.22,195.66-7.5,292.66,0"/><polygon class="cls-3" points="591.61 226.38 526.05 260.87 532.47 223.37 542.22 214.19 554.47 210.8 572.47 210.8 591.61 226.38"/><polygon class="cls-3" points="8.53 226.38 74.09 260.87 67.67 223.37 57.92 214.19 45.67 210.8 27.67 210.8 8.53 226.38"/><path class="cls-1" d="M300.07,275.36v24.83s-88.84-12.71-149-51.6C151.07,248.58,221.13,270.6,300.07,275.36Z"/><path class="cls-22" d="M300.07,275.36v24.83s88.84-12.71,149-51.6C449.07,248.58,379,270.6,300.07,275.36Z"/></g></g></svg>